SplineFontDB: 3.2
FontName: Khaanaa-Black
FullName: Khaanaa Black
FamilyName: Khaanaa
Weight: Black
Copyright: Copyright 2024 The Khaanaa Font Authors
UComments: "2024-7-22: Created with FontForge (http://fontforge.org)"
Version: 0.001
ItalicAngle: 0
UnderlinePosition: -102
UnderlineWidth: 51
Ascent: 819
Descent: 205
InvalidEm: 0
UFOAscent: 819
UFODescent: -205
LayerCount: 2
Layer: 0 0 "Back" 1
Layer: 1 1 "public.default" 0 "glyphs"
StyleMap: 0x0040
FSType: 0
OS2Version: 0
OS2_WeightWidthSlopeOnly: 0
OS2_UseTypoMetrics: 0
CreationTime: 1732813800
ModificationTime: 1733066822
PfmFamily: 16
TTFWeight: 400
TTFWidth: 5
LineGap: 0
VLineGap: 0
OS2TypoAscent: 839
OS2TypoAOffset: 0
OS2TypoDescent: -210
OS2TypoDOffset: 0
OS2TypoLinegap: 0
OS2WinAscent: 839
OS2WinAOffset: 0
OS2WinDescent: 210
OS2WinDOffset: 0
HheadAscent: 839
HheadAOffset: 0
HheadDescent: -210
HheadDOffset: 0
OS2FamilyClass: 1283
OS2Vendor: 'anir'
MarkAttachClasses: 1
DEI: 91125
LangName: 1033 "" "" "" "" "" "Version 0.001" "" "" "" "" "" "" "" "Copyright 2024, The Khaanaa Font Authors+AAoA-This Font Software is licensed under the SIL Open Font License, Version 1.1.+AAoA-This license is available with a FAQ at:https://openfontlicense.org" "https://openfontlicense.org"
Encoding: Custom
UnicodeInterp: none
NameList: AGL For New Fonts
DisplaySize: -128
AntiAlias: 1
FitToEm: 0
WinInfo: 58190 10 4
BeginPrivate: 0
EndPrivate
GridOrder2: 1
Grid
-512 296.96 m 1,0,-1
 1536 296.96 l 1025
-512 581.632 m 1,2,-1
 1536 581.632 l 1025
EndSplineSet
BeginChars: 65538 99

StartChar: A
Encoding: 65 65 0
GlifName: A_
Width: 752
VWidth: 0
GlyphClass: 2
Flags: W
LayerCount: 2
Fore
SplineSet
565 0 m 257,0,-1
 476 228 l 257,1,-1
 476 227 l 257,2,-1
 276 227 l 257,3,-1
 217 0 l 257,4,-1
 65 0 l 257,5,-1
 265 769 l 257,6,-1
 417 769 l 257,7,-1
 717 0 l 257,8,-1
 565 0 l 257,0,-1
422 367 m 257,9,-1
 356 535 l 257,10,-1
 312 367 l 257,11,-1
 422 367 l 257,9,-1
EndSplineSet
EndChar

StartChar: exclam
Encoding: 33 33 1
GlifName: exclam
Width: 252
VWidth: 0
GlyphClass: 2
Flags: W
LayerCount: 2
Fore
SplineSet
65 258 m 257,0,-1
 65 772 l 257,1,-1
 217 772 l 257,2,-1
 217 258 l 257,3,-1
 65 258 l 257,0,-1
65 -2 m 257,4,-1
 65 140 l 257,5,-1
 217 140 l 257,6,-1
 217 -2 l 257,7,-1
 65 -2 l 257,4,-1
EndSplineSet
EndChar

StartChar: quotedbl
Encoding: 34 34 2
GlifName: quotedbl
Width: 452
VWidth: 0
GlyphClass: 2
Flags: W
LayerCount: 2
Fore
SplineSet
265 532 m 261,0,-1
 265 789 l 257,1,-1
 417 789 l 257,2,-1
 417 532 l 257,3,-1
 265 532 l 261,0,-1
65 532 m 257,4,-1
 65 789 l 257,5,-1
 217 789 l 257,6,-1
 217 532 l 257,7,-1
 65 532 l 257,4,-1
EndSplineSet
EndChar

StartChar: quotesingle
Encoding: 39 39 3
GlifName: quotesingle
Width: 252
VWidth: 0
GlyphClass: 2
Flags: W
LayerCount: 2
Fore
SplineSet
65 532 m 261,0,-1
 65 789 l 257,1,-1
 217 789 l 257,2,-1
 217 532 l 257,3,-1
 65 532 l 261,0,-1
EndSplineSet
EndChar

StartChar: u1F64F
Encoding: 58213 128591 4
Width: 1024
Flags: W
LayerCount: 2
Fore
SplineSet
453.450671619 804.459225092 m 2,0,-1
 295.620603981 434.110616888 l 1,1,2
 273.27992777 384.730849026 273.27992777 384.730849026 273.279927857 322.839266883 c 0,3,4
 273.279927857 295.1228536 273.279927857 295.1228536 279.479854885 262.021933209 c 0,5,6
 290.962990424 200.714380138 290.962990424 200.714380138 311.052628048 152.776432249 c 1,7,-1
 311.129882812 152.390625 l 1,8,-1
 121.383643381 -5.36297062052 l 2,9,10
 113.319139529 -12.0470345719 113.319139529 -12.0470345719 113.319140608 -21.4584887518 c 128,-1,11
 113.319141687 -30.8699429316 113.319141687 -30.8699429316 118.859365998 -37.1857725317 c 2,12,-1
 258.616020538 -196.419940797 l 2,13,14
 265.26946747 -203.997070312 265.26946747 -203.997070312 275.345703125 -203.997070312 c 0,15,16
 286.821380026 -203.997070312 286.821380026 -203.997070312 293.475964056 -194.654179307 c 2,17,-1
 491.742663825 83.6086538605 l 2,18,19
 495.866909225 89.4019676504 495.866909225 89.4019676504 495.87265988 96.5184031166 c 2,20,-1
 496.18945323 795.738743222 l 2,21,22
 496 804 496 804 491.079050409 809.978165795 c 0,23,24
 484.305077037 818.207458772 484.305077037 818.207458772 471.807609326 818.207458772 c 128,-1,25
 459.310141616 818.207458772 459.310141616 818.207458772 453.450671619 804.459225092 c 2,0,-1
120.108544119 -3.82257625448 m 2,26,-1
 308.921654356 152.687776936 l 1,27,28
 299.372777941 175.588298647 299.372777941 175.588298647 291.552758078 202.019640238 c 128,-1,29
 283.732738215 228.450981828 283.732738215 228.450981828 277.506333036 261.693266973 c 128,-1,30
 271.279927857 294.935552119 271.279927857 294.935552119 271.279927857 316.320146283 c 128,-1,31
 271.279927857 337.704740448 271.279927857 337.704740448 272.67689168 353.02507352 c 0,32,33
 276.69891077 397.139298501 276.69891077 397.139298501 293.779786643 434.893289362 c 2,34,-1
 451.609875257 805.241946784 l 2,35,36
 457.98814686 820.207458772 457.98814686 820.207458772 472.274435658 820.207458772 c 0,37,38
 485.268761689 820.207458772 485.268761689 820.207458772 492.724210431 811.076017425 c 0,39,40
 498.189454046 804.382181381 498.189454046 804.382181381 498.189454046 795.745223687 c 2,41,-1
 497.872659453 96.516755254 l 2,42,43
 497.866393068 88.7621025554 497.866393068 88.7621025554 493.372570551 82.4499398895 c 2,44,-1
 295.106067194 -195.812617569 l 2,45,46
 287.852070218 -205.99707129 287.852070218 -205.99707129 276.108295678 -205.997070801 c 128,-1,47
 264.364521138 -205.997070312 264.364521138 -205.997070312 257.112495086 -197.738262327 c 2,48,-1
 117.355477752 -38.5036805933 l 2,49,50
 111.319141687 -31.6222859323 111.319141687 -31.6222859323 111.319141687 -21.3648701719 c 128,-1,51
 111.319141687 -11.1074544115 111.319141687 -11.1074544115 120.108544119 -3.82257625448 c 2,26,-1
712.944463173 152.776482143 m 1,52,53
 733.036967279 200.717066044 733.036967279 200.717066044 744.519451068 262.021854219 c 0,54,55
 750.718980138 295.121035843 750.718980138 295.121035843 750.718980138 316.363885995 c 128,-1,56
 750.718980138 337.606736146 750.718980138 337.606736146 749.330037404 352.841060576 c 0,57,58
 745.337951448 396.622187895 745.337951448 396.622187895 728.385278504 434.09055493 c 2,59,-1
 570.545412512 804.45924766 l 2,60,61
 564.691002156 818.208001617 564.691002156 818.208001617 551.72590528 818.208001617 c 0,62,63
 539.676388691 818.208001617 539.676388691 818.208001617 533.740538095 810.936765897 c 128,-1,64
 527.8046875 803.665530176 527.8046875 803.665530176 527.8046875 795.731445312 c 2,65,-1
 528.120455286 96.5121098625 l 2,66,67
 528.126205464 89.3948281485 528.126205464 89.3948281485 532.25056862 83.6017219383 c 2,68,-1
 730.51807604 -194.659897567 l 2,69,70
 737.176129473 -204.002929688 737.176129473 -204.002929688 747.95302903 -204.002929688 c 128,-1,71
 758.729928586 -204.002929688 758.729928586 -204.002929688 765.378058336 -196.426847097 c 2,72,-1
 905.133975141 -37.1914300946 l 2,73,74
 910.680795184 -30.870665513 910.680795184 -30.870665513 910.680795184 -22.7283062752 c 0,75,76
 910.680795184 -12.0404691901 910.680795184 -12.0404691901 902.616769726 -5.36331286546 c 2,77,-1
 713.229643758 151.620422936 l 1,78,-1
 712.944463173 152.776482143 l 1,52,53
728.88817396 -195.818618057 m 2,79,-1
 530.62052513 82.4431999367 l 2,80,81
 526.126721948 88.7549356722 526.126721948 88.7549356722 526.12045542 96.511329707 c 2,82,-1
 525.8046875 795.731445312 l 2,83,84
 525.8046875 804.377715996 525.8046875 804.377715996 531.272070711 811.075093475 c 0,85,86
 538.727691779 820.208001617 538.727691779 820.208001617 552.370578154 820.208001617 c 128,-1,87
 566.013464528 820.208001617 566.013464528 820.208001617 572.386228112 805.241924216 c 2,88,-1
 730.208471496 434.91335132 l 1,89,90
 752.718270893 385.162764583 752.718270893 385.162764583 752.718980138 322.835693853 c 0,91,92
 752.718980138 294.933736491 752.718980138 294.933736491 746.492971674 261.693181829 c 0,93,94
 735.045940713 200.57767571 735.045940713 200.57767571 715.075450276 152.687755804 c 1,95,-1
 903.891042774 -3.82223400954 l 2,96,97
 912.679583677 -11.0993019921 912.679583677 -11.0993019921 912.680189431 -21.361270844 c 128,-1,98
 912.680795184 -31.623239696 912.680795184 -31.623239696 906.637509235 -38.5097417804 c 2,99,-1
 766.881707288 -197.745027903 l 2,100,101
 759.635270642 -206.002929688 759.635270642 -206.002929688 747.890506305 -206.002929688 c 128,-1,102
 736.145741968 -206.002929688 736.145741968 -206.002929688 728.88817396 -195.818618057 c 2,79,-1
308.921654356 152.687776936 m 1,103,-1
 309.492333181 153.160822183 l 1,104,-1
 308.921654356 152.687776936 l 1,103,-1
EndSplineSet
EndChar

StartChar: numbersign
Encoding: 35 35 6
Width: 644
VWidth: 0
Flags: W
LayerCount: 2
Fore
SplineSet
159 692 m 1,0,-1
 311 692 l 1,1,-1
 298 618 l 1,2,-1
 446 618 l 1,3,-1
 459 692 l 1,4,-1
 611 692 l 1,5,-1
 598 618 l 1,6,-1
 609 618 l 1,7,-1
 609 466 l 1,8,-1
 571 466 l 1,9,-1
 554 368 l 1,10,-1
 609 368 l 1,11,-1
 609 216 l 1,12,-1
 527 216 l 1,13,-1
 515 149 l 1,14,-1
 363 149 l 1,15,-1
 375 216 l 1,16,-1
 227 216 l 1,17,-1
 215 149 l 1,18,-1
 63 149 l 1,19,-1
 75 216 l 1,20,-1
 65 216 l 1,21,-1
 65 368 l 1,22,-1
 102 368 l 1,23,-1
 119 466 l 1,24,-1
 65 466 l 1,25,-1
 65 618 l 1,26,-1
 146 618 l 1,27,-1
 159 692 l 1,0,-1
419 466 m 1,28,-1
 271 466 l 1,29,-1
 254 368 l 1,30,-1
 402 368 l 1,31,-1
 419 466 l 1,28,-1
EndSplineSet
EndChar

StartChar: dollar
Encoding: 36 36 7
Width: 512
VWidth: 0
Flags: W
LayerCount: 2
Fore
SplineSet
70 57 m 1,0,-1
 145 182 l 1,1,2
 153 176 153 176 167 167 c 0,3,4
 205 145 205 145 248 155 c 0,5,6
 256 157 256 157 263 160 c 1,7,-1
 263 310 l 1,8,9
 253 314 253 314 242 315 c 0,10,11
 193 342 193 342 157 375 c 128,-1,12
 121 408 121 408 100 449 c 128,-1,13
 79 490 79 490 82 539 c 128,-1,14
 85 588 85 588 116 639 c 0,15,16
 167 723 167 723 263 758 c 1,17,-1
 263 1030 l 1,18,-1
 342 1030 l 1,19,-1
 342 774 l 1,20,21
 413 776 413 776 468 727 c 0,22,23
 471 724 471 724 478.5 719.5 c 128,-1,24
 486 715 486 715 489 712 c 1,25,-1
 414 587 l 1,26,27
 402 597 402 597 392 602 c 0,28,29
 368 615 368 615 342 616 c 1,30,-1
 342 401 l 1,31,32
 371 384 371 384 393 366 c 0,33,34
 426 340 426 340 450.5 304.5 c 128,-1,35
 475 269 475 269 473.5 225 c 128,-1,36
 472 181 472 181 442 130 c 0,37,38
 406 70 406 70 342 32 c 0,39,40
 342 32 l 2,41,-1
 342 -182 l 1,42,-1
 263 -182 l 1,43,-1
 263 -0 l 1,44,45
 238 -6 238 -6 212 -6 c 0,46,47
 146 -6 146 -6 91 42 c 0,48,49
 88 45 88 45 80.5 49.5 c 128,-1,50
 73 54 73 54 70 57 c 1,0,-1
263 586 m 1,51,52
 254 577 254 577 247 565 c 0,53,54
 222 524 222 524 242 475 c 0,55,56
 250 456 250 456 263 443 c 1,57,-1
 263 586 l 1,51,52
EndSplineSet
EndChar

StartChar: percent
Encoding: 37 37 8
Width: 691
VWidth: 0
Flags: W
LayerCount: 2
Fore
SplineSet
219 483 m 261,0,-1
 217 483 l 257,1,-1
 210 483 l 257,2,3
 159 487 159 487 124.5 523.5 c 128,-1,4
 90 560 90 560 90 611 c 128,-1,5
 90 662 90 662 125 699 c 128,-1,6
 160 736 160 736 210 740 c 1,7,-1
 217 740 l 257,8,-1
 219 740 l 257,9,-1
 221 740 l 258,10,11
 275 740 275 740 312.5 702.5 c 128,-1,12
 350 665 350 665 350 611 c 0,13,14
 350 558 350 558 312.5 520.5 c 128,-1,15
 275 483 275 483 221 483 c 2,16,-1
 219 483 l 261,0,-1
220 665 m 260,17,18
 216 665 216 665 208 663 c 1,19,-1
 208 664 l 257,20,21
 189 660 189 660 177.5 645.5 c 128,-1,22
 166 631 166 631 166 611 c 0,23,24
 166 592 166 592 177.5 577.5 c 128,-1,25
 189 563 189 563 208 559 c 1,26,-1
 208 560 l 257,27,28
 216 558 216 558 220 558 c 128,-1,29
 224 558 224 558 232 560 c 1,30,-1
 232 559 l 257,31,32
 251 563 251 563 262.5 577.5 c 128,-1,33
 274 592 274 592 274 611 c 0,34,35
 274 631 274 631 262.5 645.5 c 128,-1,36
 251 660 251 660 232 664 c 1,37,-1
 232 663 l 257,38,39
 224 665 224 665 220 665 c 260,17,18
524 82 m 257,40,-1
 522 82 l 257,41,-1
 515 82 l 257,42,43
 464 86 464 86 429.5 122.5 c 128,-1,44
 395 159 395 159 395 210 c 128,-1,45
 395 261 395 261 430 298 c 128,-1,46
 465 335 465 335 515 339 c 1,47,-1
 522 339 l 257,48,-1
 524 339 l 257,49,-1
 526 339 l 258,50,51
 580 339 580 339 617.5 301.5 c 128,-1,52
 655 264 655 264 655 210 c 0,53,54
 655 157 655 157 617.5 119.5 c 128,-1,55
 580 82 580 82 526 82 c 2,56,-1
 524 82 l 257,40,-1
525 264 m 256,57,58
 521 264 521 264 513 262 c 1,59,-1
 513 263 l 257,60,61
 494 259 494 259 482.5 244.5 c 128,-1,62
 471 230 471 230 471 210 c 0,63,64
 471 191 471 191 482.5 176.5 c 128,-1,65
 494 162 494 162 513 158 c 1,66,-1
 513 159 l 257,67,68
 521 157 521 157 525 157 c 128,-1,69
 529 157 529 157 537 159 c 1,70,-1
 537 158 l 257,71,72
 556 162 556 162 567.5 176.5 c 128,-1,73
 579 191 579 191 579 210 c 0,74,75
 579 230 579 230 567.5 244.5 c 128,-1,76
 556 259 556 259 537 263 c 1,77,-1
 537 262 l 257,78,79
 529 264 529 264 525 264 c 256,57,58
550 818 m 257,80,-1
 656 757 l 257,81,-1
 171 -83 l 257,82,-1
 65 -22 l 257,83,-1
 550 818 l 257,80,-1
EndSplineSet
EndChar

StartChar: ampersand
Encoding: 38 38 9
Width: 649
VWidth: 0
Flags: W
LayerCount: 2
Fore
SplineSet
404 810 m 1,0,-1
 401 691 l 1,1,2
 383 690 383 690 318.5 655 c 128,-1,3
 254 620 254 620 239 605 c 0,4,5
 205 571 205 571 208 521 c 1,6,-1
 231 498 l 1,7,8
 278 518 278 518 330 518 c 0,9,10
 343 518 343 518 356 517 c 1,11,-1
 356 373 l 1,12,-1
 467 262 l 1,13,14
 580 354 580 354 584 355 c 1,15,-1
 584 202 l 2,16,17
 581 202 581 202 551 178 c 1,18,-1
 615 114 l 1,19,-1
 497 -4 l 1,20,-1
 421 73 l 1,21,22
 334 3 334 3 330 3 c 0,23,24
 223 3 223 3 147.5 78 c 128,-1,25
 72 153 72 153 72 260 c 0,26,27
 72 330 72 330 107 390 c 1,28,-1
 91 406 l 1,29,30
 71 442 71 442 66 480 c 128,-1,31
 61 518 61 518 71 558.5 c 128,-1,32
 81 599 81 599 94.5 633 c 128,-1,33
 108 667 108 667 132 712 c 0,34,35
 145 736 145 736 205.5 764 c 128,-1,36
 266 792 266 792 327 806 c 128,-1,37
 388 820 388 820 404 810 c 1,0,-1
337 158 m 1,38,-1
 224 272 l 1,39,40
 223 266 223 266 223 260 c 0,41,42
 223 216 223 216 254 185 c 128,-1,43
 285 154 285 154 330 154 c 0,44,45
 331 154 331 154 337 158 c 1,38,-1
EndSplineSet
EndChar

StartChar: parenleft
Encoding: 40 40 10
Width: 555
VWidth: 0
Flags: W
LayerCount: 2
Fore
SplineSet
447 744 m 257,0,1
 347 744 347 744 258 633.5 c 128,-1,2
 169 523 169 523 169 378 c 0,3,4
 169 232 169 232 258 121.5 c 128,-1,5
 347 11 347 11 447 11 c 1,6,-1
 520 -7 l 257,7,8
 486 -14 486 -14 447 -14 c 0,9,10
 289 -14 289 -14 177 101.5 c 128,-1,11
 65 217 65 217 65 380 c 128,-1,12
 65 543 65 543 177 658 c 128,-1,13
 289 773 289 773 447 773 c 0,14,15
 486 773 486 773 520 766 c 1,16,-1
 447 744 l 257,0,1
EndSplineSet
EndChar

StartChar: parenright
Encoding: 41 41 11
Width: 555
VWidth: 0
Flags: W
LayerCount: 2
Fore
SplineSet
138 744 m 261,0,-1
 65 766 l 257,1,2
 99 773 99 773 138 773 c 0,3,4
 296 773 296 773 408 658 c 128,-1,5
 520 543 520 543 520 380 c 128,-1,6
 520 217 520 217 408 101.5 c 128,-1,7
 296 -14 296 -14 138 -14 c 0,8,9
 99 -14 99 -14 65 -7 c 1,10,-1
 138 11 l 257,11,12
 238 11 238 11 327 121.5 c 128,-1,13
 416 232 416 232 416 378 c 0,14,15
 416 523 416 523 327 633.5 c 128,-1,16
 238 744 238 744 138 744 c 261,0,-1
EndSplineSet
EndChar

StartChar: asterisk
Encoding: 42 42 12
Width: 644
VWidth: 0
Flags: W
LayerCount: 2
Fore
SplineSet
609 496 m 1,0,-1
 609 344 l 1,1,-1
 520 344 l 1,2,-1
 583 281 l 1,3,-1
 476 174 l 1,4,-1
 413 237 l 1,5,-1
 413 149 l 1,6,-1
 261 149 l 1,7,-1
 261 237 l 1,8,-1
 198 174 l 1,9,-1
 91 281 l 1,10,-1
 154 344 l 1,11,-1
 65 344 l 1,12,-1
 65 496 l 1,13,-1
 154 496 l 1,14,-1
 91 559 l 1,15,-1
 198 666 l 1,16,-1
 261 603 l 1,17,-1
 261 692 l 1,18,-1
 413 692 l 1,19,-1
 413 603 l 1,20,-1
 476 666 l 1,21,-1
 583 559 l 1,22,-1
 520 496 l 1,23,-1
 609 496 l 1,0,-1
EndSplineSet
EndChar

StartChar: plus
Encoding: 43 43 13
Width: 642
VWidth: 0
Flags: W
LayerCount: 2
Fore
SplineSet
259 692 m 1,0,-1
 411 692 l 1,1,-1
 411 496 l 1,2,-1
 607 496 l 1,3,-1
 607 344 l 1,4,-1
 411 344 l 1,5,-1
 411 149 l 1,6,-1
 259 149 l 1,7,-1
 259 344 l 1,8,-1
 63 344 l 1,9,-1
 63 496 l 1,10,-1
 259 496 l 1,11,-1
 259 692 l 1,0,-1
EndSplineSet
EndChar

StartChar: comma
Encoding: 44 44 14
Width: 252
VWidth: 0
Flags: W
LayerCount: 2
Fore
SplineSet
65 -2 m 5,0,-1
 65 140 l 1,1,-1
 217 140 l 1,2,-1
 217 -2 l 1,3,-1
 157 -134 l 1,4,-1
 99 -130 l 1,5,-1
 108 -2 l 1,6,-1
 65 -2 l 5,0,-1
EndSplineSet
EndChar

StartChar: hyphen
Encoding: 45 45 15
Width: 644
VWidth: 0
Flags: W
LayerCount: 2
Fore
SplineSet
609 496 m 261,0,-1
 609 344 l 257,1,-1
 65 344 l 257,2,-1
 65 496 l 257,3,-1
 609 496 l 261,0,-1
EndSplineSet
EndChar

StartChar: period
Encoding: 46 46 16
Width: 252
VWidth: 0
Flags: W
LayerCount: 2
Fore
SplineSet
65 -2 m 257,0,-1
 65 140 l 257,1,-1
 217 140 l 257,2,-1
 217 -2 l 257,3,-1
 65 -2 l 257,0,-1
EndSplineSet
EndChar

StartChar: slash
Encoding: 47 47 17
Width: 691
VWidth: 0
Flags: W
LayerCount: 2
Fore
SplineSet
550 818 m 257,0,-1
 656 757 l 257,1,-1
 171 -83 l 257,2,-1
 65 -22 l 257,3,-1
 550 818 l 257,0,-1
EndSplineSet
EndChar

StartChar: zero
Encoding: 48 48 18
Width: 864
VWidth: 0
Flags: W
LayerCount: 2
Fore
SplineSet
752 380 m 256,0,1
 752 273 752 273 711.5 182 c 128,-1,2
 671 91 671 91 601 38.5 c 128,-1,3
 531 -14 531 -14 447.5 -14 c 128,-1,4
 364 -14 364 -14 293.5 38.5 c 128,-1,5
 223 91 223 91 182.5 182 c 128,-1,6
 142 273 142 273 142 380 c 0,7,8
 142 487 142 487 182.5 577.5 c 128,-1,9
 223 668 223 668 293.5 720.5 c 128,-1,10
 364 773 364 773 447.5 773 c 128,-1,11
 531 773 531 773 601 720.5 c 128,-1,12
 671 668 671 668 711.5 577.5 c 128,-1,13
 752 487 752 487 752 380 c 256,0,1
630 378 m 256,14,15
 630 475 630 475 577 543.5 c 128,-1,16
 524 612 524 612 447.5 612 c 128,-1,17
 371 612 371 612 317.5 543.5 c 128,-1,18
 264 475 264 475 264 378 c 0,19,20
 264 280 264 280 317.5 211.5 c 128,-1,21
 371 143 371 143 447.5 143 c 128,-1,22
 524 143 524 143 577 211.5 c 128,-1,23
 630 280 630 280 630 378 c 256,14,15
EndSplineSet
EndChar

StartChar: one
Encoding: 49 49 19
Width: 252
VWidth: 0
Flags: W
LayerCount: 2
Fore
SplineSet
65 774 m 257,0,-1
 217 774 l 257,1,-1
 217 -2 l 257,2,-1
 65 -2 l 257,3,-1
 65 774 l 257,0,-1
EndSplineSet
EndChar

StartChar: two
Encoding: 50 50 20
Width: 555
VWidth: 0
Flags: W
LayerCount: 2
Fore
SplineSet
145 586 m 4,0,1
 240 586 240 586 307 531 c 128,-1,2
 374 476 374 476 374 399 c 0,3,4
 374 322 374 322 308 274 c 128,-1,5
 242 226 242 226 145 226 c 0,6,7
 107 226 107 226 72 236 c 1,8,-1
 69 0 l 1,9,-1
 572 5 l 1,10,-1
 572 126 l 1,11,-1
 297 124 l 1,12,13
 401 158 401 158 464 231.5 c 128,-1,14
 527 305 527 305 527 400 c 0,15,16
 527 485 527 485 476 558 c 128,-1,17
 425 631 425 631 337 673 c 128,-1,18
 249 715 249 715 145 715 c 0,19,20
 108 715 108 715 72 709 c 1,21,-1
 72 576 l 1,22,23
 107 586 107 586 145 586 c 4,0,1
EndSplineSet
EndChar

StartChar: three
Encoding: 51 51 21
Width: 435
VWidth: 0
Flags: W
LayerCount: 2
Fore
SplineSet
65 -5 m 5,0,-1
 65 119 l 1,1,2
 78 116 78 116 91 116 c 0,3,4
 157 116 157 116 203 141 c 128,-1,5
 249 166 249 166 249 202 c 0,6,7
 249 236 249 236 222 260 c 128,-1,8
 195 284 195 284 155 288 c 0,9,10
 149 288 149 288 142.5 288 c 128,-1,11
 136 288 136 288 130 288 c 0,12,13
 123 287 123 287 116 286 c 1,14,-1
 116 289 l 1,15,-1
 116 410 l 1,16,-1
 116 413 l 1,17,18
 123 412 123 412 130 411 c 0,19,20
 136 411 136 411 142 411 c 128,-1,21
 148 411 148 411 155 411 c 0,22,23
 196 415 196 415 222.5 439 c 128,-1,24
 249 463 249 463 249 496 c 0,25,26
 249 532 249 532 205 557.5 c 128,-1,27
 161 583 161 583 97 583 c 0,28,29
 84 583 84 583 71 580 c 1,30,-1
 71 704 l 1,31,32
 84 705 84 705 97 705 c 0,33,34
 223 705 223 705 311.5 644 c 128,-1,35
 400 583 400 583 400 496 c 0,36,37
 400 410 400 410 325 349 c 1,38,39
 400 288 400 288 400 202 c 128,-1,40
 400 116 400 116 309.5 55 c 128,-1,41
 219 -6 219 -6 91 -6 c 0,42,43
 78 -6 78 -6 65 -5 c 5,0,-1
EndSplineSet
EndChar

StartChar: four
Encoding: 52 52 22
Width: 752
VWidth: 0
Flags: W
LayerCount: 2
Fore
SplineSet
409 0 m 257,0,-1
 409 192 l 257,1,-1
 408 191 l 257,2,-1
 73 191 l 257,3,-1
 395 774 l 257,4,-1
 538 774 l 257,5,-1
 538 0 l 257,6,-1
 409 0 l 257,0,-1
401 341 m 257,7,-1
 401 521 l 257,8,-1
 303 344 l 257,9,-1
 401 341 l 257,7,-1
EndSplineSet
EndChar

StartChar: five
Encoding: 53 53 23
Width: 384
VWidth: 0
Flags: W
LayerCount: 2
Fore
SplineSet
65 4 m 1,0,-1
 65 157 l 1,1,2
 77 154 77 154 91 154 c 0,3,4
 136 154 136 154 167 185 c 128,-1,5
 198 216 198 216 198 260 c 0,6,7
 198 305 198 305 167 336 c 128,-1,8
 136 367 136 367 91 367 c 0,9,10
 77 367 77 367 65 364 c 1,11,-1
 65 397 l 1,12,-1
 65 517 l 1,13,-1
 65 773 l 1,14,-1
 66 773 l 1,15,-1
 66 774 l 1,16,-1
 383 774 l 1,17,-1
 382 622 l 1,18,-1
 217 622 l 1,19,-1
 217 485 l 1,20,21
 277 451 277 451 313 391.5 c 128,-1,22
 349 332 349 332 349 260 c 0,23,24
 349 153 349 153 273.5 78 c 128,-1,25
 198 3 198 3 91 3 c 0,26,27
 74 3 74 3 65 4 c 1,0,-1
EndSplineSet
EndChar

StartChar: six
Encoding: 54 54 24
Width: 729
VWidth: 0
Flags: W
LayerCount: 2
Fore
SplineSet
447 612 m 0,0,1
 362 612 362 612 298 556 c 128,-1,2
 234 500 234 500 221 416 c 1,3,4
 291 493 291 493 394 499 c 0,5,6
 402 500 402 500 408 500 c 0,7,8
 410 500 410 500 412 500 c 0,9,10
 413 500 l 0,11,12
 414 500 414 500 416 500 c 0,13,14
 507 500 507 500 577.5 443.5 c 128,-1,15
 648 387 648 387 668 300 c 0,16,17
 674 272 674 272 674 242 c 0,18,19
 674 202 674 202 662 164 c 0,20,21
 632 70 632 70 546 20 c 1,22,23
 497 -14 497 -14 447 -14 c 0,24,25
 443 -14 443 -14 440 -14 c 0,26,27
 428 -15 428 -15 416 -15 c 0,28,29
 415 -15 415 -15 414 -15 c 0,30,-1
 413 -15 l 0,31,32
 412 -15 l 0,33,34
 410 -15 410 -15 408 -15 c 0,35,36
 399 -15 399 -15 394 -14 c 0,37,38
 314 -7 314 -7 252 41 c 1,39,40
 166 93 166 93 115.5 183 c 128,-1,41
 65 273 65 273 65 380 c 0,42,43
 65 543 65 543 177 658 c 128,-1,44
 289 773 289 773 447 773 c 0,45,46
 530 773 530 773 566 766 c 1,47,-1
 566 600 l 1,48,49
 551 605 551 605 511 608.5 c 128,-1,50
 471 612 471 612 447 612 c 0,0,1
398 367 m 0,51,52
 387 367 387 367 374 364 c 1,53,-1
 374 365 l 1,54,55
 337 358 337 358 313 328.5 c 128,-1,56
 289 299 289 299 289 260 c 0,57,58
 289 206 289 206 333 174 c 0,59,60
 349 165 349 165 365 158 c 0,61,62
 369 157 369 157 374 156 c 1,63,-1
 374 157 l 1,64,65
 385 154 385 154 398 154 c 0,66,67
 410 154 410 154 422 157 c 1,68,-1
 422 156 l 1,69,70
 459 163 459 163 483 192.5 c 128,-1,71
 507 222 507 222 507 260 c 0,72,73
 507 299 507 299 483 328 c 128,-1,74
 459 357 459 357 422 365 c 1,75,-1
 422 364 l 1,76,77
 410 367 410 367 398 367 c 0,51,52
EndSplineSet
EndChar

StartChar: seven
Encoding: 55 55 25
Width: 610
VWidth: 0
Flags: W
LayerCount: 2
Fore
SplineSet
228 0 m 257,0,-1
 66 0 l 257,1,-1
 404 610 l 257,2,-1
 65 610 l 257,3,-1
 65 762 l 257,4,-1
 575 762 l 257,5,-1
 575 610 l 257,6,-1
 228 0 l 257,0,-1
EndSplineSet
EndChar

StartChar: eight
Encoding: 56 56 26
Width: 616
VWidth: 0
Flags: W
LayerCount: 2
Fore
SplineSet
325 367 m 256,0,1
 312 367 312 367 301 364 c 1,2,-1
 301 365 l 257,3,4
 264 358 264 358 240 328.5 c 128,-1,5
 216 299 216 299 216 260 c 0,6,7
 216 222 216 222 240 193 c 128,-1,8
 264 164 264 164 301 156 c 1,9,-1
 301 157 l 257,10,11
 312 154 312 154 325 154 c 0,12,13
 337 154 337 154 349 157 c 1,14,-1
 349 156 l 257,15,16
 386 163 386 163 410 192.5 c 128,-1,17
 434 222 434 222 434 260 c 0,18,19
 434 299 434 299 410 328 c 128,-1,20
 386 357 386 357 349 365 c 1,21,-1
 349 364 l 257,22,23
 337 367 337 367 325 367 c 256,0,1
325 672 m 256,24,25
 312 672 312 672 301 669 c 1,26,-1
 301 670 l 257,27,28
 264 663 264 663 240 633.5 c 128,-1,29
 216 604 216 604 216 565 c 0,30,31
 216 527 216 527 240 498 c 128,-1,32
 264 469 264 469 301 461 c 1,33,-1
 301 462 l 257,34,35
 312 459 312 459 325 459 c 0,36,37
 337 459 337 459 349 462 c 1,38,-1
 349 461 l 257,39,40
 386 468 386 468 410 497.5 c 128,-1,41
 434 527 434 527 434 565 c 0,42,43
 434 604 434 604 410 633 c 128,-1,44
 386 662 386 662 349 670 c 1,45,-1
 349 669 l 257,46,47
 337 672 337 672 325 672 c 256,24,25
324 3 m 0,48,49
 323 3 l 0,50,51
 321 3 321 3 319 3 c 0,52,53
 311 3 311 3 305 4 c 0,54,55
 204 11 204 11 134.5 84.5 c 128,-1,56
 65 158 65 158 65 260 c 0,57,58
 65 345 65 345 115 413 c 1,59,60
 65 481 65 481 65 565 c 0,61,62
 65 667 65 667 134.5 741.5 c 128,-1,63
 204 816 204 816 305 822 c 0,64,65
 311 823 311 823 319 823 c 0,66,67
 321 823 321 823 323 823 c 0,68,69
 324 823 l 0,70,71
 325 823 325 823 327 823 c 0,72,73
 434 823 434 823 509.5 747.5 c 128,-1,74
 585 672 585 672 585 565 c 0,75,76
 585 481 585 481 535 413 c 1,77,78
 585 345 585 345 585 260 c 0,79,80
 585 153 585 153 509.5 78 c 128,-1,81
 434 3 434 3 327 3 c 0,82,83
 326 3 326 3 325.5 3 c 128,-1,84
 325 3 325 3 324 3 c 0,48,49
EndSplineSet
EndChar

StartChar: nine
Encoding: 57 57 27
Width: 729
VWidth: 0
Flags: W
LayerCount: 2
Fore
SplineSet
292 146 m 0,0,1
 377 146 377 146 441 202 c 128,-1,2
 505 258 505 258 518 342 c 1,3,4
 448 265 448 265 345 259 c 0,5,6
 337 258 337 258 331 258 c 0,7,8
 329 258 329 258 327 258 c 0,9,10
 326 258 l 0,11,12
 325 258 325 258 323 258 c 0,13,14
 232 258 232 258 161.5 314.5 c 128,-1,15
 91 371 91 371 71 458 c 0,16,17
 65 486 65 486 65 516 c 0,18,19
 65 556 65 556 77 594 c 0,20,21
 107 688 107 688 193 738 c 1,22,23
 242 772 242 772 292 772 c 0,24,25
 296 772 296 772 299 772 c 0,26,27
 311 773 311 773 323 773 c 0,28,29
 324 773 324 773 325 773 c 0,30,-1
 326 773 l 0,31,32
 327 773 l 0,33,34
 329 773 329 773 331 773 c 0,35,36
 340 773 340 773 345 772 c 0,37,38
 425 765 425 765 487 717 c 1,39,40
 573 665 573 665 623.5 575 c 128,-1,41
 674 485 674 485 674 378 c 0,42,43
 674 215 674 215 562 100 c 128,-1,44
 450 -15 450 -15 292 -15 c 0,45,46
 209 -15 209 -15 173 -8 c 1,47,-1
 173 158 l 1,48,49
 188 153 188 153 228 149.5 c 128,-1,50
 268 146 268 146 292 146 c 0,0,1
341 391 m 0,51,52
 352 391 352 391 365 394 c 1,53,-1
 365 393 l 1,54,55
 402 400 402 400 426 429.5 c 128,-1,56
 450 459 450 459 450 498 c 0,57,58
 450 552 450 552 406 584 c 0,59,60
 390 593 390 593 374 600 c 0,61,62
 370 601 370 601 365 602 c 1,63,-1
 365 601 l 1,64,65
 354 604 354 604 341 604 c 0,66,67
 329 604 329 604 317 601 c 1,68,-1
 317 602 l 1,69,70
 280 595 280 595 256 565.5 c 128,-1,71
 232 536 232 536 232 498 c 0,72,73
 232 459 232 459 256 430 c 128,-1,74
 280 401 280 401 317 393 c 1,75,-1
 317 394 l 1,76,77
 329 391 329 391 341 391 c 0,51,52
EndSplineSet
EndChar

StartChar: colon
Encoding: 58 58 28
Width: 252
VWidth: 0
Flags: W
LayerCount: 2
Fore
SplineSet
65 398 m 261,0,-1
 65 540 l 257,1,-1
 217 540 l 257,2,-1
 217 398 l 257,3,-1
 65 398 l 261,0,-1
65 -2 m 257,4,-1
 65 140 l 257,5,-1
 217 140 l 257,6,-1
 217 -2 l 257,7,-1
 65 -2 l 257,4,-1
EndSplineSet
EndChar

StartChar: semicolon
Encoding: 59 59 29
Width: 252
VWidth: 0
Flags: W
LayerCount: 2
Fore
SplineSet
65 -2 m 5,0,-1
 65 140 l 1,1,-1
 217 140 l 1,2,-1
 217 -2 l 1,3,-1
 157 -134 l 1,4,-1
 99 -130 l 1,5,-1
 108 -2 l 1,6,-1
 65 -2 l 5,0,-1
65 398 m 257,7,-1
 65 540 l 257,8,-1
 217 540 l 257,9,-1
 217 398 l 257,10,-1
 65 398 l 257,7,-1
EndSplineSet
EndChar

StartChar: less
Encoding: 60 60 30
Width: 644
VWidth: 0
Flags: W
LayerCount: 2
Fore
SplineSet
609 546 m 5,0,-1
 609 394 l 1,1,-1
 395 338 l 1,2,-1
 609 296 l 1,3,-1
 609 144 l 1,4,-1
 65 250 l 1,5,-1
 65 251 l 1,6,-1
 65 402 l 1,7,-1
 65 403 l 1,8,-1
 609 546 l 5,0,-1
EndSplineSet
EndChar

StartChar: equal
Encoding: 61 61 31
Width: 644
VWidth: 0
Flags: W
LayerCount: 2
Fore
SplineSet
609 296 m 261,0,-1
 609 144 l 257,1,-1
 65 144 l 257,2,-1
 65 296 l 257,3,-1
 609 296 l 261,0,-1
609 546 m 257,4,-1
 609 394 l 257,5,-1
 65 394 l 257,6,-1
 65 546 l 257,7,-1
 609 546 l 257,4,-1
EndSplineSet
EndChar

StartChar: greater
Encoding: 62 62 32
Width: 644
VWidth: 0
Flags: W
LayerCount: 2
Fore
SplineSet
65 546 m 5,0,-1
 609 403 l 1,1,-1
 609 402 l 1,2,-1
 609 251 l 1,3,-1
 609 250 l 1,4,-1
 65 144 l 1,5,-1
 65 296 l 1,6,-1
 279 338 l 1,7,-1
 65 394 l 1,8,-1
 65 546 l 5,0,-1
EndSplineSet
EndChar

StartChar: question
Encoding: 63 63 33
Width: 384
VWidth: 0
Flags: W
LayerCount: 2
Fore
SplineSet
65 -2 m 257,0,-1
 65 140 l 257,1,-1
 217 140 l 257,2,-1
 217 -2 l 257,3,-1
 65 -2 l 257,0,-1
65 828 m 1,4,5
 74 829 74 829 91 829 c 0,6,7
 198 829 198 829 273.5 754 c 128,-1,8
 349 679 349 679 349 572 c 0,9,10
 349 500 349 500 313 440 c 128,-1,11
 277 380 277 380 217 347 c 1,12,-1
 217 230 l 1,13,-1
 65 230 l 1,14,-1
 65 315 l 1,15,-1
 65 440 l 1,16,-1
 65 468 l 1,17,18
 77 465 77 465 91 465 c 0,19,20
 136 465 136 465 167 496 c 128,-1,21
 198 527 198 527 198 572 c 0,22,23
 198 616 198 616 167 647 c 128,-1,24
 136 678 136 678 91 678 c 0,25,26
 77 678 77 678 65 675 c 1,27,-1
 65 828 l 1,4,5
EndSplineSet
EndChar

StartChar: B
Encoding: 66 66 34
Width: 512
VWidth: 0
Flags: W
LayerCount: 2
Fore
SplineSet
217 780 m 258,0,1
 223 780 223 780 235 780 c 0,2,3
 342 780 342 780 417.5 704.5 c 128,-1,4
 493 629 493 629 493 522 c 0,5,6
 493 499 493 499 479 477 c 128,-1,7
 465 455 465 455 440.5 429 c 128,-1,8
 416 403 416 403 410 396 c 0,9,10
 412 394 412 394 442.5 362 c 128,-1,11
 473 330 473 330 486 307.5 c 128,-1,12
 499 285 499 285 499 260 c 0,13,14
 499 153 499 153 423.5 78 c 128,-1,15
 348 3 348 3 241 3 c 0,16,17
 225 3 225 3 217 4 c 2,18,-1
 65 4 l 257,19,-1
 65 780 l 257,20,-1
 217 780 l 258,0,1
217 136 m 257,21,22
 229 133 229 133 241 133 c 256,23,24
 286 133 286 133 317 164 c 128,-1,25
 348 195 348 195 348 239 c 0,26,27
 348 284 348 284 317 315 c 128,-1,28
 286 346 286 346 241 346 c 0,29,30
 229 346 229 346 217 343 c 257,31,-1
 217 136 l 257,21,22
217 454 m 257,32,33
 229 451 229 451 241 451 c 256,34,35
 286 451 286 451 317 482 c 128,-1,36
 348 513 348 513 348 557 c 0,37,38
 348 602 348 602 317 633 c 128,-1,39
 286 664 286 664 241 664 c 0,40,41
 229 664 229 664 217 661 c 257,42,-1
 217 454 l 257,32,33
EndSplineSet
EndChar

StartChar: C
Encoding: 67 67 35
Width: 555
VWidth: 0
Flags: W
LayerCount: 2
Fore
SplineSet
447 612 m 260,0,1
 352 612 352 612 285 543.5 c 128,-1,2
 218 475 218 475 218 378 c 0,3,4
 218 280 218 280 285 211.5 c 128,-1,5
 352 143 352 143 447 143 c 0,6,7
 485 143 485 143 520 155 c 1,8,-1
 520 -7 l 257,9,10
 484 -14 484 -14 447 -14 c 0,11,12
 289 -14 289 -14 177 101.5 c 128,-1,13
 65 217 65 217 65 380 c 128,-1,14
 65 543 65 543 177 658 c 128,-1,15
 289 773 289 773 447 773 c 0,16,17
 484 773 484 773 520 766 c 1,18,-1
 520 600 l 257,19,20
 485 612 485 612 447 612 c 260,0,1
EndSplineSet
EndChar

StartChar: D
Encoding: 68 68 36
Width: 630
VWidth: 0
Flags: W
LayerCount: 2
Fore
SplineSet
65 768 m 257,0,1
 80 763 80 763 139 768 c 128,-1,2
 198 773 198 773 213 773 c 0,3,4
 371 773 371 773 483 658 c 128,-1,5
 595 543 595 543 595 380 c 0,6,7
 595 273 595 273 544.5 183 c 128,-1,8
 494 93 494 93 407 40 c 128,-1,9
 320 -13 320 -13 217 -14 c 0,10,-1
 65 -14 l 257,11,-1
 65 768 l 257,0,1
217 143 m 257,12,13
 311 145 311 145 376.5 213.5 c 128,-1,14
 442 282 442 282 442 378 c 0,15,16
 442 474 442 474 376.5 542 c 128,-1,17
 311 610 311 610 217 612 c 1,18,-1
 217 143 l 257,12,13
EndSplineSet
EndChar

StartChar: E
Encoding: 69 69 37
Width: 668
VWidth: 0
Flags: W
LayerCount: 2
Fore
SplineSet
524 485 m 257,0,-1
 525 333 l 257,1,-1
 217 333 l 257,2,-1
 217 149 l 257,3,-1
 632 149 l 257,4,-1
 633 -3 l 257,5,-1
 66 -3 l 257,6,-1
 66 -2 l 257,7,-1
 65 -2 l 257,8,-1
 65 774 l 257,9,-1
 65 778 l 257,10,-1
 632 778 l 257,11,-1
 633 626 l 257,12,-1
 217 626 l 257,13,-1
 217 485 l 257,14,-1
 524 485 l 257,0,-1
EndSplineSet
EndChar

StartChar: F
Encoding: 70 70 38
Width: 668
VWidth: 0
Flags: W
LayerCount: 2
Fore
SplineSet
524 485 m 257,0,-1
 525 333 l 257,1,-1
 217 333 l 257,2,-1
 217 -2 l 257,3,-1
 65 -2 l 257,4,-1
 65 774 l 257,5,-1
 65 778 l 257,6,-1
 632 778 l 257,7,-1
 633 626 l 257,8,-1
 217 626 l 257,9,-1
 217 485 l 257,10,-1
 524 485 l 257,0,-1
EndSplineSet
EndChar

StartChar: G
Encoding: 71 71 39
Width: 651
VWidth: 0
Flags: W
LayerCount: 2
Fore
SplineSet
447 612 m 256,0,1
 352 612 352 612 285 543.5 c 128,-1,2
 218 475 218 475 218 378 c 0,3,4
 218 280 218 280 285 211.5 c 128,-1,5
 352 143 352 143 447 143 c 0,6,7
 456 143 456 143 464 144 c 1,8,-1
 464 313 l 257,9,-1
 616 313 l 257,10,-1
 616 -14 l 257,11,-1
 464 -14 l 258,12,13
 456 -14 456 -14 447 -14 c 0,14,15
 289 -14 289 -14 177 101.5 c 128,-1,16
 65 217 65 217 65 380 c 128,-1,17
 65 543 65 543 177 658 c 128,-1,18
 289 773 289 773 447 773 c 0,19,20
 484 773 484 773 520 766 c 1,21,-1
 520 600 l 257,22,23
 485 612 485 612 447 612 c 256,0,1
EndSplineSet
EndChar

StartChar: H
Encoding: 72 72 40
Width: 652
VWidth: 0
Flags: W
LayerCount: 2
Fore
SplineSet
465 774 m 257,0,-1
 617 774 l 257,1,-1
 617 -2 l 257,2,-1
 465 -2 l 257,3,-1
 465 333 l 257,4,-1
 217 333 l 257,5,-1
 217 -2 l 257,6,-1
 65 -2 l 257,7,-1
 65 774 l 257,8,-1
 217 774 l 257,9,-1
 217 485 l 257,10,-1
 465 485 l 257,11,-1
 465 774 l 257,0,-1
EndSplineSet
EndChar

StartChar: I
Encoding: 73 73 41
Width: 252
VWidth: 0
Flags: W
LayerCount: 2
Fore
SplineSet
65 774 m 257,0,-1
 217 774 l 257,1,-1
 217 -2 l 257,2,-1
 65 -2 l 257,3,-1
 65 774 l 257,0,-1
EndSplineSet
EndChar

StartChar: J
Encoding: 74 74 42
Width: 419
VWidth: 0
Flags: W
LayerCount: 2
Fore
SplineSet
65 6 m 257,0,-1
 65 174 l 257,1,2
 96 148 96 148 136 148 c 0,3,4
 185 148 185 148 217 185 c 1,5,-1
 217 761 l 257,6,-1
 384 761 l 257,7,-1
 381 184 l 257,8,9
 357 101 357 101 290 49 c 128,-1,10
 223 -3 223 -3 136 -3 c 0,11,12
 99 -3 99 -3 65 6 c 257,0,-1
EndSplineSet
EndChar

StartChar: K
Encoding: 75 75 43
Width: 703
VWidth: 0
Flags: W
LayerCount: 2
Fore
SplineSet
65 774 m 257,0,-1
 217 774 l 257,1,-1
 217 433 l 257,2,-1
 462 770 l 257,3,-1
 648 768 l 257,4,-1
 387 387 l 257,5,-1
 718 -3 l 257,6,-1
 526 -2 l 257,7,-1
 274 302 l 257,8,-1
 217 219 l 257,9,-1
 217 -2 l 257,10,-1
 65 -2 l 257,11,-1
 65 774 l 257,0,-1
EndSplineSet
EndChar

StartChar: L
Encoding: 76 76 44
Width: 718
VWidth: 0
Flags: W
LayerCount: 2
Fore
SplineSet
65 774 m 261,0,-1
 217 774 l 257,1,-1
 217 149 l 257,2,-1
 682 149 l 257,3,-1
 683 -3 l 257,4,-1
 66 -3 l 257,5,-1
 66 -2 l 257,6,-1
 65 -2 l 257,7,-1
 65 774 l 261,0,-1
EndSplineSet
EndChar

StartChar: M
Encoding: 77 77 45
Width: 1052
VWidth: 0
Flags: W
LayerCount: 2
Fore
SplineSet
65 768 m 257,0,-1
 217 768 l 257,1,-1
 541 146 l 257,2,-1
 865 768 l 257,3,-1
 1017 768 l 257,4,-1
 1017 -2 l 257,5,-1
 865 -2 l 257,6,-1
 865 476 l 257,7,-1
 617 0 l 257,8,-1
 465 0 l 257,9,-1
 217 476 l 257,10,-1
 217 -2 l 257,11,-1
 65 -2 l 257,12,-1
 65 768 l 257,0,-1
EndSplineSet
EndChar

StartChar: N
Encoding: 78 78 46
Width: 852
VWidth: 0
Flags: W
LayerCount: 2
Fore
SplineSet
65 774 m 257,0,-1
 217 774 l 257,1,-1
 665 251 l 257,2,-1
 665 774 l 257,3,-1
 817 774 l 257,4,-1
 817 -2 l 257,5,-1
 665 -2 l 257,6,-1
 217 523 l 257,7,-1
 217 -2 l 257,8,-1
 65 -2 l 257,9,-1
 65 774 l 257,0,-1
EndSplineSet
EndChar

StartChar: O
Encoding: 79 79 47
Width: 864
VWidth: 0
Flags: W
LayerCount: 2
Fore
SplineSet
829 380 m 260,0,1
 829 217 829 217 717 101.5 c 128,-1,2
 605 -14 605 -14 447 -14 c 128,-1,3
 289 -14 289 -14 177 101.5 c 128,-1,4
 65 217 65 217 65 380 c 128,-1,5
 65 543 65 543 177 658 c 128,-1,6
 289 773 289 773 447 773 c 128,-1,7
 605 773 605 773 717 658 c 128,-1,8
 829 543 829 543 829 380 c 260,0,1
676 378 m 260,9,10
 676 475 676 475 609 543.5 c 128,-1,11
 542 612 542 612 447 612 c 128,-1,12
 352 612 352 612 285 543.5 c 128,-1,13
 218 475 218 475 218 378 c 0,14,15
 218 280 218 280 285 211.5 c 128,-1,16
 352 143 352 143 447 143 c 128,-1,17
 542 143 542 143 609 211.5 c 128,-1,18
 676 280 676 280 676 378 c 260,9,10
EndSplineSet
EndChar

StartChar: P
Encoding: 80 80 48
Width: 534
VWidth: 0
Flags: W
LayerCount: 2
Fore
SplineSet
217 3 m 257,0,-1
 65 3 l 257,1,-1
 65 779 l 257,2,-1
 217 779 l 258,3,4
 225 780 225 780 241 780 c 0,5,6
 348 780 348 780 423.5 705 c 128,-1,7
 499 630 499 630 499 523 c 128,-1,8
 499 416 499 416 423.5 340.5 c 128,-1,9
 348 265 348 265 241 265 c 0,10,11
 225 265 225 265 217 266 c 1,12,-1
 217 3 l 257,0,-1
217 626 m 257,13,-1
 217 419 l 257,14,15
 229 416 229 416 241 416 c 256,16,17
 286 416 286 416 317 447 c 128,-1,18
 348 478 348 478 348 523 c 0,19,20
 348 567 348 567 317 598 c 128,-1,21
 286 629 286 629 241 629 c 0,22,23
 229 629 229 629 217 626 c 257,13,-1
EndSplineSet
EndChar

StartChar: Q
Encoding: 81 81 49
Width: 864
VWidth: 0
Flags: W
LayerCount: 2
Fore
SplineSet
676 378 m 256,0,1
 676 475 676 475 609 543.5 c 128,-1,2
 542 612 542 612 447 612 c 128,-1,3
 352 612 352 612 285 543.5 c 128,-1,4
 218 475 218 475 218 378 c 0,5,6
 218 280 218 280 285 211.5 c 128,-1,7
 352 143 352 143 447 143 c 128,-1,8
 542 143 542 143 609 211.5 c 128,-1,9
 676 280 676 280 676 378 c 256,0,1
829 380 m 256,10,11
 829 293 829 293 795 216.5 c 128,-1,12
 761 140 761 140 700 85 c 1,13,-1
 837 -52 l 257,14,-1
 699 -191 l 257,15,-1
 516 -8 l 257,16,17
 482 -14 482 -14 447 -14 c 0,18,19
 289 -14 289 -14 177 101.5 c 128,-1,20
 65 217 65 217 65 380 c 128,-1,21
 65 543 65 543 177 658 c 128,-1,22
 289 773 289 773 447 773 c 128,-1,23
 605 773 605 773 717 658 c 128,-1,24
 829 543 829 543 829 380 c 256,10,11
EndSplineSet
EndChar

StartChar: R
Encoding: 82 82 50
Width: 512
VWidth: 0
Flags: W
LayerCount: 2
Fore
SplineSet
217 626 m 257,0,-1
 217 419 l 257,1,2
 229 416 229 416 241 416 c 256,3,4
 286 416 286 416 317 447 c 128,-1,5
 348 478 348 478 348 523 c 0,6,7
 348 567 348 567 317 598 c 128,-1,8
 286 629 286 629 241 629 c 0,9,10
 229 629 229 629 217 626 c 257,0,-1
217 3 m 257,11,-1
 65 3 l 257,12,-1
 65 779 l 257,13,-1
 217 779 l 258,14,15
 225 780 225 780 241 780 c 0,16,17
 348 780 348 780 423.5 705 c 128,-1,18
 499 630 499 630 499 523 c 0,19,20
 499 440 499 440 451.5 373.5 c 128,-1,21
 404 307 404 307 328 280 c 1,22,-1
 527 -3 l 257,23,-1
 387 -3 l 257,24,-1
 222 266 l 258,25,26
 219 266 219 266 217 266 c 1,27,-1
 217 3 l 257,11,-1
EndSplineSet
EndChar

StartChar: S
Encoding: 83 83 51
Width: 512
VWidth: 0
Flags: W
LayerCount: 2
Fore
SplineSet
70 57 m 257,0,-1
 145 182 l 257,1,2
 157 172 157 172 167 167 c 0,3,4
 205 145 205 145 247 155.5 c 128,-1,5
 289 166 289 166 312 202 c 0,6,7
 334 241 334 241 309.5 274.5 c 128,-1,8
 285 308 285 308 242 315 c 1,9,10
 175 351 175 351 134.5 398 c 128,-1,11
 94 445 94 445 83.5 507.5 c 128,-1,12
 73 570 73 570 116 639 c 0,13,14
 168 726 168 726 271 751.5 c 128,-1,15
 374 777 374 777 468 727 c 0,16,17
 471 724 471 724 478.5 719.5 c 128,-1,18
 486 715 486 715 489 712 c 1,19,-1
 414 587 l 257,20,21
 402 597 402 597 392 602 c 0,22,23
 354 623 354 623 311.5 612.5 c 128,-1,24
 269 602 269 602 247 565 c 0,25,26
 222 524 222 524 242.5 475 c 128,-1,27
 263 426 263 426 311 418 c 1,28,29
 360 392 360 392 393.5 365.5 c 128,-1,30
 427 339 427 339 451.5 303.5 c 128,-1,31
 476 268 476 268 474.5 224 c 128,-1,32
 473 180 473 180 442 130 c 0,33,34
 390 42 390 42 287.5 16.5 c 128,-1,35
 185 -9 185 -9 91 42 c 0,36,37
 88 45 88 45 80.5 49.5 c 128,-1,38
 73 54 73 54 70 57 c 257,0,-1
EndSplineSet
EndChar

StartChar: T
Encoding: 84 84 52
Width: 676
VWidth: 0
Flags: W
LayerCount: 2
Fore
SplineSet
68 614 m 1,0,-1
 68 766 l 5,1,-1
 644 766 l 5,2,-1
 644 614 l 1,3,-1
 432 614 l 1,4,-1
 432 -2 l 1,5,-1
 280 -2 l 1,6,-1
 280 614 l 1,7,-1
 68 614 l 1,0,-1
EndSplineSet
EndChar

StartChar: U
Encoding: 85 85 53
Width: 669
VWidth: 0
Flags: W
LayerCount: 2
Fore
SplineSet
631 184 m 257,0,1
 615 126 615 126 570.5 84.5 c 128,-1,2
 526 43 526 43 470 23.5 c 128,-1,3
 414 4 414 4 350 3.5 c 128,-1,4
 286 3 286 3 229.5 22 c 128,-1,5
 173 41 173 41 129 83 c 128,-1,6
 85 125 85 125 68 184 c 1,7,-1
 65 761 l 257,8,-1
 232 761 l 257,9,-1
 232 185 l 257,10,11
 261 152 261 152 350 151.5 c 128,-1,12
 439 151 439 151 467 185 c 1,13,-1
 467 761 l 257,14,-1
 634 761 l 257,15,-1
 631 184 l 257,0,1
EndSplineSet
EndChar

StartChar: V
Encoding: 86 86 54
Width: 652
VWidth: 0
Flags: W
LayerCount: 2
Fore
SplineSet
65 769 m 257,0,-1
 217 769 l 257,1,-1
 341 292 l 257,2,-1
 465 769 l 257,3,-1
 617 769 l 257,4,-1
 417 0 l 257,5,-1
 265 0 l 257,6,-1
 65 769 l 257,0,-1
EndSplineSet
EndChar

StartChar: W
Encoding: 87 87 55
Width: 1000
VWidth: 0
Flags: W
LayerCount: 2
Fore
SplineSet
65 769 m 1,0,-1
 217 769 l 1,1,-1
 341 292 l 1,2,-1
 465 769 l 1,3,-1
 466 769 l 1,4,-1
 617 769 l 1,5,-1
 618 769 l 1,6,-1
 742 292 l 1,7,-1
 866 769 l 1,8,-1
 1018 769 l 1,9,-1
 818 0 l 1,10,-1
 666 0 l 1,11,-1
 542 479 l 1,12,-1
 417 0 l 1,13,-1
 265 0 l 1,14,-1
 65 769 l 1,0,-1
EndSplineSet
EndChar

StartChar: X
Encoding: 88 88 56
Width: 724
VWidth: 0
Flags: W
LayerCount: 2
Fore
SplineSet
65 770 m 257,0,-1
 251 768 l 257,1,-1
 381 541 l 257,2,-1
 513 769 l 257,3,-1
 688 768 l 257,4,-1
 468 388 l 257,5,-1
 689 0 l 257,6,-1
 514 -2 l 257,7,-1
 378 233 l 257,8,-1
 244 2 l 257,9,-1
 66 -1 l 257,10,-1
 290 384 l 257,11,-1
 65 770 l 257,0,-1
EndSplineSet
EndChar

StartChar: Y
Encoding: 89 89 57
Width: 512
VWidth: 0
Flags: W
LayerCount: 2
Fore
SplineSet
208 451 m 257,0,-1
 9 765 l 257,1,-1
 161 765 l 257,2,-1
 285 594 l 257,3,-1
 409 765 l 257,4,-1
 561 765 l 257,5,-1
 361 450 l 257,6,-1
 360 450 l 257,7,-1
 360 1 l 257,8,-1
 208 1 l 257,9,-1
 208 451 l 257,0,-1
EndSplineSet
EndChar

StartChar: Z
Encoding: 90 90 58
Width: 783
VWidth: 0
Flags: W
LayerCount: 2
Fore
SplineSet
65 10 m 257,0,-1
 65 162 l 257,1,-1
 495 610 l 257,2,-1
 65 610 l 257,3,-1
 65 762 l 257,4,-1
 748 762 l 257,5,-1
 748 610 l 257,6,-1
 316 162 l 257,7,-1
 748 162 l 257,8,-1
 748 10 l 257,9,-1
 65 10 l 257,0,-1
EndSplineSet
EndChar

StartChar: bracketleft
Encoding: 91 91 59
Width: 362
VWidth: 0
Flags: W
LayerCount: 2
Fore
SplineSet
66 -80 m 5,0,-1
 65 -80 l 1,1,-1
 65 -79 l 1,2,-1
 65 773 l 1,3,-1
 65 774 l 1,4,-1
 66 774 l 1,5,-1
 327 774 l 1,6,-1
 326 689 l 1,7,-1
 159 689 l 1,8,-1
 159 5 l 1,9,-1
 326 5 l 1,10,-1
 327 -80 l 1,11,-1
 66 -80 l 5,0,-1
EndSplineSet
EndChar

StartChar: backslash
Encoding: 92 92 60
Width: 691
VWidth: 0
Flags: W
LayerCount: 2
Fore
SplineSet
171 818 m 257,0,-1
 656 -22 l 257,1,-1
 550 -83 l 257,2,-1
 65 757 l 257,3,-1
 171 818 l 257,0,-1
EndSplineSet
EndChar

StartChar: bracketright
Encoding: 93 93 61
Width: 362
VWidth: 0
Flags: W
LayerCount: 2
Fore
SplineSet
326 -81 m 1,0,-1
 65 -81 l 1,1,-1
 66 4 l 1,2,-1
 233 4 l 1,3,-1
 233 689 l 1,4,-1
 66 689 l 1,5,-1
 65 774 l 1,6,-1
 326 774 l 1,7,-1
 327 774 l 1,8,-1
 327 773 l 1,9,-1
 327 -80 l 1,10,-1
 327 -81 l 1,11,-1
 326 -81 l 1,0,-1
EndSplineSet
EndChar

StartChar: asciicircum
Encoding: 94 94 62
Width: 644
VWidth: 0
Flags: W
LayerCount: 2
Fore
SplineSet
136 283 m 1,0,-1
 279 617 l 1,1,-1
 280 617 l 1,2,-1
 431 617 l 1,3,-1
 432 617 l 1,4,-1
 538 283 l 1,5,-1
 386 283 l 1,6,-1
 344 497 l 1,7,-1
 288 283 l 1,8,-1
 136 283 l 1,0,-1
EndSplineSet
EndChar

StartChar: underscore
Encoding: 95 95 63
Width: 544
VWidth: 0
Flags: W
LayerCount: 2
Fore
SplineSet
559 196 m 261,0,-1
 559 44 l 257,1,-1
 15 44 l 257,2,-1
 15 196 l 257,3,-1
 559 196 l 261,0,-1
EndSplineSet
EndChar

StartChar: grave
Encoding: 96 96 64
Width: 252
VWidth: 0
Flags: W
LayerCount: 2
Fore
SplineSet
178 516 m 261,0,-1
 -4 698 l 257,1,-1
 104 805 l 257,2,-1
 286 623 l 257,3,-1
 178 516 l 261,0,-1
EndSplineSet
EndChar

StartChar: a
Encoding: 97 97 65
Width: 512
VWidth: 0
Flags: W
LayerCount: 2
Fore
SplineSet
347 1 m 257,0,-1
 347 9 l 257,1,2
 339 8 339 8 323 8 c 0,3,4
 216 8 216 8 140.5 83.5 c 128,-1,5
 65 159 65 159 65 266 c 0,6,7
 65 372 65 372 140 443.5 c 128,-1,8
 215 515 215 515 323 515 c 0,9,10
 339 515 339 515 347 514 c 2,11,-1
 499 514 l 257,12,-1
 499 1 l 257,13,-1
 347 1 l 257,0,-1
347 369 m 257,14,15
 335 372 335 372 323 372 c 256,16,17
 278 372 278 372 247 341 c 128,-1,18
 216 310 216 310 216 266 c 0,19,20
 216 221 216 221 247 190 c 128,-1,21
 278 159 278 159 323 159 c 0,22,23
 335 159 335 159 347 162 c 257,24,-1
 347 369 l 257,14,15
EndSplineSet
EndChar

StartChar: b
Encoding: 98 98 66
Width: 512
VWidth: 0
Flags: W
LayerCount: 2
Fore
SplineSet
217 780 m 257,0,-1
 217 517 l 257,1,2
 225 518 225 518 241 518 c 0,3,4
 348 518 348 518 423.5 442.5 c 128,-1,5
 499 367 499 367 499 260 c 128,-1,6
 499 153 499 153 423.5 78 c 128,-1,7
 348 3 348 3 241 3 c 0,8,9
 225 3 225 3 217 4 c 2,10,-1
 65 4 l 257,11,-1
 65 780 l 257,12,-1
 217 780 l 257,0,-1
217 157 m 257,13,14
 229 154 229 154 241 154 c 256,15,16
 286 154 286 154 317 185 c 128,-1,17
 348 216 348 216 348 260 c 0,18,19
 348 305 348 305 317 336 c 128,-1,20
 286 367 286 367 241 367 c 0,21,22
 229 367 229 367 217 364 c 257,23,-1
 217 157 l 257,13,14
EndSplineSet
EndChar

StartChar: c
Encoding: 99 99 67
Width: 384
VWidth: 0
Flags: W
LayerCount: 2
Fore
SplineSet
349 4 m 261,0,1
 336 3 336 3 323 3 c 0,2,3
 216 3 216 3 140.5 78 c 128,-1,4
 65 153 65 153 65 260 c 128,-1,5
 65 367 65 367 140.5 442.5 c 128,-1,6
 216 518 216 518 323 518 c 0,7,8
 336 518 336 518 349 517 c 1,9,-1
 349 364 l 257,10,11
 336 367 336 367 323 367 c 0,12,13
 278 367 278 367 247 336 c 128,-1,14
 216 305 216 305 216 260 c 0,15,16
 216 216 216 216 247 185 c 128,-1,17
 278 154 278 154 323 154 c 0,18,19
 336 154 336 154 349 157 c 1,20,-1
 349 4 l 261,0,1
EndSplineSet
EndChar

StartChar: d
Encoding: 100 100 68
Width: 512
VWidth: 0
Flags: W
LayerCount: 2
Fore
SplineSet
347 780 m 257,0,-1
 499 780 l 257,1,-1
 499 4 l 257,2,-1
 347 4 l 258,3,4
 335 3 335 3 323 3 c 0,5,6
 216 3 216 3 140.5 78 c 128,-1,7
 65 153 65 153 65 260 c 128,-1,8
 65 367 65 367 140.5 442.5 c 128,-1,9
 216 518 216 518 323 518 c 0,10,11
 335 518 335 518 347 517 c 1,12,-1
 347 780 l 257,0,-1
347 157 m 257,13,-1
 347 364 l 257,14,15
 335 367 335 367 323 367 c 0,16,17
 278 367 278 367 247 336 c 128,-1,18
 216 305 216 305 216 260 c 0,19,20
 216 216 216 216 247 185 c 128,-1,21
 278 154 278 154 323 154 c 0,22,23
 335 154 335 154 347 157 c 257,13,-1
EndSplineSet
EndChar

StartChar: e
Encoding: 101 101 69
Width: 617
VWidth: 0
Flags: W
LayerCount: 2
Fore
SplineSet
581 260 m 256,0,1
 581 250 581 250 581.5 232.5 c 128,-1,2
 582 215 582 215 582 208 c 1,3,-1
 231 205 l 257,4,5
 245 181 245 181 269.5 167.5 c 128,-1,6
 294 154 294 154 323 154 c 0,7,8
 357 154 357 154 460.5 156.5 c 128,-1,9
 564 159 564 159 572 162 c 1,10,-1
 572 6 l 257,11,12
 553 3 553 3 323 3 c 0,13,14
 216 3 216 3 140.5 78 c 128,-1,15
 65 153 65 153 65 260 c 128,-1,16
 65 367 65 367 140.5 442.5 c 128,-1,17
 216 518 216 518 323 518 c 128,-1,18
 430 518 430 518 505.5 442.5 c 128,-1,19
 581 367 581 367 581 260 c 256,0,1
245 334 m 257,20,-1
 402 332 l 257,21,22
 370 367 370 367 323 367 c 0,23,24
 276 367 276 367 245 334 c 257,20,-1
EndSplineSet
EndChar

StartChar: f
Encoding: 102 102 70
Width: 512
VWidth: 0
Flags: W
LayerCount: 2
Fore
SplineSet
479 752 m 1,0,-1
 479 584 l 1,1,2
 448 610 448 610 408 610 c 0,3,4
 359 610 359 610 327 573 c 1,5,-1
 327 511 l 1,6,-1
 424 511 l 1,7,-1
 424 359 l 1,8,-1
 327 359 l 1,9,-1
 327 -3 l 1,10,-1
 160 -3 l 1,11,-1
 162 359 l 1,12,-1
 65 359 l 1,13,-1
 65 511 l 1,14,-1
 163 511 l 1,15,-1
 163 574 l 1,16,17
 187 657 187 657 254 709 c 128,-1,18
 321 761 321 761 408 761 c 0,19,20
 445 761 445 761 479 752 c 1,0,-1
EndSplineSet
EndChar

StartChar: g
Encoding: 103 103 71
Width: 620
VWidth: 0
Flags: W
LayerCount: 2
Fore
SplineSet
325 367 m 256,0,1
 312 367 312 367 301 364 c 1,2,-1
 301 365 l 257,3,4
 264 358 264 358 240 328.5 c 128,-1,5
 216 299 216 299 216 260 c 0,6,7
 216 222 216 222 240 193 c 128,-1,8
 264 164 264 164 301 156 c 1,9,-1
 301 157 l 257,10,11
 312 154 312 154 325 154 c 0,12,13
 337 154 337 154 349 157 c 1,14,-1
 349 156 l 257,15,16
 386 163 386 163 410 192.5 c 128,-1,17
 434 222 434 222 434 260 c 0,18,19
 434 299 434 299 410 328 c 128,-1,20
 386 357 386 357 349 365 c 1,21,-1
 349 364 l 257,22,23
 337 367 337 367 325 367 c 256,0,1
324 3 m 256,24,25
 323 3 l 256,26,27
 321 3 321 3 319 3 c 256,28,29
 318 3 318 3 315 3 c 0,30,31
 278 3 278 3 274 4 c 0,32,33
 176 11 176 11 120.5 82.5 c 128,-1,34
 65 154 65 154 65 260 c 0,35,36
 65 362 65 362 134.5 436.5 c 128,-1,37
 204 511 204 511 305 517 c 0,38,39
 311 517 311 517 319 518 c 0,40,41
 321 518 321 518 323 518 c 256,42,43
 324 518 l 256,44,45
 325 518 325 518 327 518 c 0,46,47
 434 518 434 518 509.5 443 c 128,-1,48
 585 368 585 368 585 261 c 0,49,-1
 585 261 l 258,50,51
 585 260 l 256,52,53
 585 257 585 257 585 253 c 258,54,-1
 582 -18 l 257,55,56
 558 -101 558 -101 492.5 -153 c 128,-1,57
 427 -205 427 -205 340 -205 c 0,58,59
 169 -205 169 -205 135 -196 c 1,60,-1
 135 -28 l 257,61,62
 147 -38 147 -38 226 -46 c 128,-1,63
 305 -54 305 -54 340 -54 c 0,64,65
 366 -54 366 -54 392.5 -44 c 128,-1,66
 419 -34 419 -34 434 -17 c 1,67,-1
 434 26 l 257,68,69
 383 3 383 3 327 3 c 0,70,71
 325 3 325 3 324 3 c 256,24,25
EndSplineSet
EndChar

StartChar: h
Encoding: 104 104 72
Width: 597
VWidth: 0
Flags: W
LayerCount: 2
Fore
SplineSet
65 768 m 257,0,-1
 234 768 l 257,1,-1
 234 512 l 257,2,3
 273 524 273 524 314 524 c 0,4,5
 401 524 401 524 468 472 c 128,-1,6
 535 420 535 420 559 337 c 1,7,-1
 562 6 l 257,8,-1
 395 6 l 257,9,-1
 395 336 l 257,10,11
 363 373 363 373 314 373 c 0,12,13
 266 373 266 373 234 338 c 1,14,-1
 234 6 l 257,15,-1
 65 6 l 257,16,-1
 65 768 l 257,0,-1
EndSplineSet
EndChar

StartChar: i
Encoding: 105 105 73
Width: 252
VWidth: 0
Flags: W
LayerCount: 2
Fore
SplineSet
65 512 m 257,0,-1
 217 512 l 257,1,-1
 217 -2 l 257,2,-1
 65 -2 l 257,3,-1
 65 512 l 257,0,-1
65 772 m 257,4,-1
 217 772 l 257,5,-1
 217 630 l 257,6,-1
 65 630 l 257,7,-1
 65 772 l 257,4,-1
EndSplineSet
EndChar

StartChar: j
Encoding: 106 106 74
Width: 419
VWidth: 0
Flags: W
LayerCount: 2
Fore
SplineSet
65 -195 m 257,0,-1
 65 -27 l 257,1,2
 96 -53 96 -53 136 -53 c 0,3,4
 185 -53 185 -53 217 -16 c 1,5,-1
 217 517 l 257,6,-1
 384 517 l 257,7,-1
 381 -17 l 257,8,9
 357 -100 357 -100 290 -152 c 128,-1,10
 223 -204 223 -204 136 -204 c 0,11,12
 99 -204 99 -204 65 -195 c 257,0,-1
229 772 m 257,13,-1
 381 772 l 257,14,-1
 381 630 l 257,15,-1
 229 630 l 257,16,-1
 229 772 l 257,13,-1
EndSplineSet
EndChar

StartChar: k
Encoding: 107 107 75
Width: 753
VWidth: 0
Flags: W
LayerCount: 2
Fore
SplineSet
76 774 m 257,0,-1
 217 774 l 257,1,-1
 217 317 l 257,2,-1
 462 529 l 257,3,-1
 655 527 l 257,4,-1
 394 284 l 257,5,-1
 664 -3 l 257,6,-1
 478 -2 l 257,7,-1
 274 226 l 257,8,-1
 217 154 l 257,9,-1
 217 -2 l 257,10,-1
 76 -2 l 257,11,-1
 76 774 l 257,0,-1
EndSplineSet
EndChar

StartChar: l
Encoding: 108 108 76
Width: 419
VWidth: 0
Flags: W
LayerCount: 2
Fore
SplineSet
379 6 m 257,0,1
 345 -3 345 -3 308 -3 c 0,2,3
 221 -3 221 -3 154 49 c 128,-1,4
 87 101 87 101 63 184 c 257,5,-1
 60 761 l 257,6,-1
 227 761 l 257,7,-1
 227 185 l 1,8,9
 259 148 259 148 308 148 c 0,10,11
 348 148 348 148 379 174 c 257,12,-1
 379 6 l 257,0,1
EndSplineSet
EndChar

StartChar: m
Encoding: 109 109 77
Width: 924
VWidth: 0
Flags: W
LayerCount: 2
Fore
SplineSet
65 522 m 257,0,-1
 234 522 l 257,1,-1
 234 512 l 257,2,3
 273 524 273 524 314 524 c 0,4,5
 401 524 401 524 468 472 c 128,-1,6
 535 420 535 420 559 337 c 1,7,-1
 562 6 l 257,8,-1
 395 6 l 257,9,-1
 395 336 l 257,10,11
 363 373 363 373 314 373 c 0,12,13
 266 373 266 373 234 338 c 1,14,-1
 234 6 l 257,15,-1
 65 6 l 257,16,-1
 65 522 l 257,0,-1
396 429 m 257,17,-1
 561 512 l 257,18,19
 600 524 600 524 641 524 c 0,20,21
 728 524 728 524 795 472 c 128,-1,22
 862 420 862 420 886 337 c 1,23,-1
 889 6 l 257,24,-1
 722 6 l 257,25,-1
 722 336 l 257,26,27
 690 373 690 373 641 373 c 0,28,29
 593 373 593 373 561 338 c 1,30,-1
 561 6 l 257,31,-1
 392 6 l 257,32,-1
 396 429 l 257,17,-1
EndSplineSet
EndChar

StartChar: n
Encoding: 110 110 78
Width: 597
VWidth: 0
Flags: W
LayerCount: 2
Fore
SplineSet
65 522 m 257,0,-1
 234 522 l 257,1,-1
 234 512 l 257,2,3
 273 524 273 524 314 524 c 0,4,5
 401 524 401 524 468 472 c 128,-1,6
 535 420 535 420 559 337 c 1,7,-1
 562 6 l 257,8,-1
 395 6 l 257,9,-1
 395 336 l 257,10,11
 363 373 363 373 314 373 c 0,12,13
 266 373 266 373 234 338 c 1,14,-1
 234 6 l 257,15,-1
 65 6 l 257,16,-1
 65 522 l 257,0,-1
EndSplineSet
EndChar

StartChar: o
Encoding: 111 111 79
Width: 616
VWidth: 0
Flags: W
LayerCount: 2
Fore
SplineSet
324 3 m 260,0,1
 323 3 l 256,2,3
 321 3 321 3 319 3 c 256,4,5
 311 3 311 3 305 4 c 0,6,7
 204 11 204 11 134.5 84.5 c 128,-1,8
 65 158 65 158 65 260 c 0,9,10
 65 362 65 362 134.5 436.5 c 128,-1,11
 204 511 204 511 305 517 c 0,12,13
 311 517 311 517 319 518 c 0,14,15
 321 518 321 518 323 518 c 256,16,17
 324 518 l 256,18,19
 325 518 325 518 327 518 c 0,20,21
 434 518 434 518 509.5 442.5 c 128,-1,22
 585 367 585 367 585 260 c 128,-1,23
 585 153 585 153 509.5 78 c 128,-1,24
 434 3 434 3 327 3 c 0,25,26
 325 3 325 3 324 3 c 260,0,1
325 367 m 260,27,28
 312 367 312 367 301 364 c 1,29,-1
 301 365 l 257,30,31
 264 358 264 358 240 328.5 c 128,-1,32
 216 299 216 299 216 260 c 0,33,34
 216 222 216 222 240 193 c 128,-1,35
 264 164 264 164 301 156 c 1,36,-1
 301 157 l 257,37,38
 312 154 312 154 325 154 c 0,39,40
 337 154 337 154 349 157 c 1,41,-1
 349 156 l 257,42,43
 386 163 386 163 410 192.5 c 128,-1,44
 434 222 434 222 434 260 c 0,45,46
 434 299 434 299 410 328 c 128,-1,47
 386 357 386 357 349 365 c 1,48,-1
 349 364 l 257,49,50
 337 367 337 367 325 367 c 260,27,28
EndSplineSet
EndChar

StartChar: p
Encoding: 112 112 80
Width: 512
VWidth: 0
Flags: W
LayerCount: 2
Fore
SplineSet
217 -202 m 257,0,-1
 65 -202 l 257,1,-1
 65 509 l 257,2,-1
 217 509 l 258,3,4
 225 510 225 510 241 510 c 0,5,6
 348 510 348 510 423.5 435 c 128,-1,7
 499 360 499 360 499 253 c 128,-1,8
 499 146 499 146 423.5 70.5 c 128,-1,9
 348 -5 348 -5 241 -5 c 0,10,11
 225 -5 225 -5 217 -4 c 1,12,-1
 217 -202 l 257,0,-1
217 356 m 257,13,-1
 217 149 l 257,14,15
 229 146 229 146 241 146 c 256,16,17
 286 146 286 146 317 177 c 128,-1,18
 348 208 348 208 348 253 c 0,19,20
 348 297 348 297 317 328 c 128,-1,21
 286 359 286 359 241 359 c 0,22,23
 229 359 229 359 217 356 c 257,13,-1
EndSplineSet
EndChar

StartChar: q
Encoding: 113 113 81
Width: 512
VWidth: 0
Flags: W
LayerCount: 2
Fore
SplineSet
347 -202 m 257,0,-1
 347 -4 l 257,1,2
 339 -5 339 -5 323 -5 c 0,3,4
 216 -5 216 -5 140.5 70.5 c 128,-1,5
 65 146 65 146 65 253 c 128,-1,6
 65 360 65 360 140.5 435 c 128,-1,7
 216 510 216 510 323 510 c 0,8,9
 339 510 339 510 347 509 c 2,10,-1
 499 509 l 257,11,-1
 499 -202 l 257,12,-1
 347 -202 l 257,0,-1
347 356 m 257,13,14
 335 359 335 359 323 359 c 256,15,16
 278 359 278 359 247 328 c 128,-1,17
 216 297 216 297 216 253 c 0,18,19
 216 208 216 208 247 177 c 128,-1,20
 278 146 278 146 323 146 c 0,21,22
 335 146 335 146 347 149 c 257,23,-1
 347 356 l 257,13,14
EndSplineSet
EndChar

StartChar: r
Encoding: 114 114 82
Width: 587
VWidth: 0
Flags: W
LayerCount: 2
Fore
SplineSet
65 522 m 257,0,-1
 234 522 l 257,1,-1
 234 512 l 257,2,3
 273 524 273 524 314 524 c 0,4,5
 394 524 394 524 458.5 473 c 128,-1,6
 523 422 523 422 552 345 c 1,7,-1
 387 345 l 257,8,-1
 387 344 l 257,9,10
 356 373 356 373 314 373 c 0,11,12
 266 373 266 373 234 338 c 1,13,-1
 234 6 l 257,14,-1
 65 6 l 257,15,-1
 65 522 l 257,0,-1
EndSplineSet
EndChar

StartChar: s
Encoding: 115 115 83
Width: 508
VWidth: 0
Flags: W
LayerCount: 2
Fore
SplineSet
84 47 m 257,0,-1
 151 159 l 257,1,2
 158 152 158 152 173 147 c 0,3,4
 213 130 213 130 244.5 134 c 128,-1,5
 276 138 276 138 296 162 c 0,6,7
 319 189 319 189 274 201 c 0,8,9
 262 204 262 204 220 211 c 257,10,11
 154 237 154 237 114 271.5 c 128,-1,12
 74 306 74 306 66 348 c 128,-1,13
 58 390 58 390 96 434 c 0,14,15
 143 491 143 491 243 502.5 c 128,-1,16
 343 514 343 514 439 473 c 0,17,18
 457 465 457 465 461 462 c 1,19,-1
 394 332 l 257,20,21
 380 341 380 341 372 344 c 0,22,23
 332 360 332 360 311.5 356 c 128,-1,24
 291 352 291 352 271 328 c 0,25,26
 247 302 247 302 251 292.5 c 128,-1,27
 255 283 255 283 302 275 c 1,28,29
 342 258 342 258 370.5 243.5 c 128,-1,30
 399 229 399 229 425.5 209 c 128,-1,31
 452 189 452 189 463.5 169.5 c 128,-1,32
 475 150 475 150 472.5 125.5 c 128,-1,33
 470 101 470 101 448 75 c 0,34,35
 401 18 401 18 301 5.5 c 128,-1,36
 201 -7 201 -7 106 34 c 0,37,38
 98 36 98 36 84 47 c 257,0,-1
EndSplineSet
EndChar

StartChar: t
Encoding: 116 116 84
Width: 514
VWidth: 0
Flags: W
LayerCount: 2
Fore
SplineSet
479 6 m 257,0,1
 445 -3 445 -3 408 -3 c 0,2,3
 321 -3 321 -3 254 49 c 128,-1,4
 187 101 187 101 163 184 c 1,5,-1
 162 364 l 257,6,-1
 65 364 l 257,7,-1
 65 516 l 257,8,-1
 161 516 l 257,9,-1
 160 761 l 257,10,-1
 327 761 l 257,11,-1
 327 516 l 257,12,-1
 424 516 l 257,13,-1
 424 364 l 257,14,-1
 327 364 l 257,15,-1
 327 185 l 257,16,17
 359 148 359 148 408 148 c 0,18,19
 448 148 448 148 479 174 c 1,20,-1
 479 6 l 257,0,1
EndSplineSet
EndChar

StartChar: u
Encoding: 117 117 85
Width: 598
VWidth: 0
Flags: W
LayerCount: 2
Fore
SplineSet
563 8 m 257,0,-1
 394 8 l 257,1,-1
 394 18 l 257,2,3
 355 6 355 6 314 6 c 0,4,5
 227 6 227 6 160 58 c 128,-1,6
 93 110 93 110 69 193 c 1,7,-1
 66 524 l 257,8,-1
 233 524 l 257,9,-1
 233 194 l 257,10,11
 265 157 265 157 314 157 c 0,12,13
 362 157 362 157 394 192 c 1,14,-1
 394 524 l 257,15,-1
 563 524 l 257,16,-1
 563 8 l 257,0,-1
EndSplineSet
EndChar

StartChar: v
Encoding: 118 118 86
Width: 652
VWidth: 0
Flags: W
LayerCount: 2
Fore
SplineSet
65 511 m 257,0,-1
 217 511 l 257,1,-1
 341 144 l 257,2,-1
 465 511 l 257,3,-1
 617 511 l 257,4,-1
 417 0 l 257,5,-1
 265 0 l 257,6,-1
 65 511 l 257,0,-1
EndSplineSet
EndChar

StartChar: w
Encoding: 119 119 87
Width: 1044
VWidth: 0
Flags: W
LayerCount: 2
Fore
SplineSet
461 511 m 257,0,-1
 613 511 l 257,1,-1
 733 144 l 257,2,-1
 857 511 l 257,3,-1
 1009 511 l 257,4,-1
 809 0 l 257,5,-1
 661 0 l 257,6,-1
 537 317 l 257,7,-1
 413 0 l 257,8,-1
 265 0 l 257,9,-1
 65 511 l 257,10,-1
 213 511 l 257,11,-1
 337 144 l 257,12,-1
 461 511 l 257,0,-1
EndSplineSet
EndChar

StartChar: x
Encoding: 120 120 88
Width: 724
VWidth: 0
Flags: W
LayerCount: 2
Fore
SplineSet
65 513 m 257,0,-1
 251 511 l 257,1,-1
 380 360 l 257,2,-1
 513 512 l 257,3,-1
 688 511 l 257,4,-1
 468 258 l 257,5,-1
 689 0 l 257,6,-1
 514 -2 l 257,7,-1
 377 155 l 257,8,-1
 244 2 l 257,9,-1
 66 -1 l 257,10,-1
 290 256 l 257,11,-1
 65 513 l 257,0,-1
EndSplineSet
EndChar

StartChar: y
Encoding: 121 121 89
Width: 652
VWidth: 0
Flags: W
LayerCount: 2
Fore
SplineSet
65 511 m 257,0,-1
 236 511 l 257,1,-1
 360 144 l 257,2,-1
 465 511 l 257,3,-1
 650 514 l 257,4,-1
 371 -200 l 257,5,-1
 223 -204 l 257,6,-1
 292 0 l 257,7,-1
 65 511 l 257,0,-1
EndSplineSet
EndChar

StartChar: z
Encoding: 122 122 90
Width: 512
VWidth: 0
Flags: W
LayerCount: 2
Fore
SplineSet
65 10 m 257,0,-1
 65 162 l 257,1,-1
 308 366 l 257,2,-1
 65 366 l 257,3,-1
 65 518 l 257,4,-1
 518 518 l 257,5,-1
 518 366 l 257,6,-1
 316 162 l 257,7,-1
 518 162 l 257,8,-1
 518 10 l 257,9,-1
 65 10 l 257,0,-1
EndSplineSet
EndChar

StartChar: braceleft
Encoding: 123 123 91
Width: 419
VWidth: 0
Flags: W
LayerCount: 2
Fore
SplineSet
466 -85 m 1,0,1
 451 -92 451 -92 429 -92 c 0,2,3
 385 -92 385 -92 350.5 -50 c 128,-1,4
 316 -8 316 -8 304 58 c 1,5,-1
 303 228 l 1,6,-1
 194 358 l 1,7,-1
 303 485 l 1,8,-1
 304 655 l 1,9,10
 316 721 316 721 350.5 763 c 128,-1,11
 385 805 385 805 429 805 c 0,12,13
 451 805 451 805 466 798 c 1,14,-1
 466 663 l 1,15,16
 450 684 450 684 429 684 c 0,17,18
 405 684 405 684 388 654 c 1,19,-1
 389 470 l 1,20,-1
 307 369 l 1,21,-1
 388 228 l 1,22,-1
 388 58 l 1,23,24
 404 29 404 29 429 29 c 0,25,26
 450 29 450 29 466 50 c 1,27,-1
 466 -85 l 1,0,1
EndSplineSet
EndChar

StartChar: bar
Encoding: 124 124 92
Width: 252
VWidth: 0
Flags: W
LayerCount: 2
Fore
SplineSet
80 871 m 257,0,-1
 202 871 l 257,1,-1
 202 -99 l 257,2,-1
 80 -99 l 257,3,-1
 80 871 l 257,0,-1
EndSplineSet
EndChar

StartChar: braceright
Encoding: 125 125 93
Width: 419
VWidth: 0
Flags: W
LayerCount: 2
Fore
SplineSet
194 -85 m 1,0,-1
 194 50 l 1,1,2
 210 29 210 29 231 29 c 0,3,4
 256 29 256 29 272 58 c 1,5,-1
 272 228 l 1,6,-1
 353 369 l 1,7,-1
 271 470 l 1,8,-1
 272 654 l 1,9,10
 255 684 255 684 231 684 c 0,11,12
 210 684 210 684 194 663 c 1,13,-1
 194 798 l 1,14,15
 209 805 209 805 231 805 c 0,16,17
 275 805 275 805 309.5 763 c 128,-1,18
 344 721 344 721 356 655 c 1,19,-1
 357 485 l 1,20,-1
 466 358 l 1,21,-1
 357 228 l 1,22,-1
 356 58 l 1,23,24
 344 -8 344 -8 309.5 -50 c 128,-1,25
 275 -92 275 -92 231 -92 c 0,26,27
 209 -92 209 -92 194 -85 c 1,0,-1
EndSplineSet
EndChar

StartChar: asciitilde
Encoding: 126 126 94
Width: 644
VWidth: 0
Flags: W
LayerCount: 2
Fore
SplineSet
564 577 m 257,0,-1
 564 425 l 258,1,2
 563 421 563 421 547.5 403 c 128,-1,3
 532 385 532 385 500 364.5 c 128,-1,4
 468 344 468 344 436 344 c 2,5,-1
 336 344 l 2,6,7
 304 344 304 344 259.5 372 c 128,-1,8
 215 400 215 400 183 400 c 0,9,10
 160 400 160 400 130.5 386 c 128,-1,11
 101 372 101 372 83 358 c 2,12,-1
 65 344 l 1,13,-1
 65 496 l 257,14,15
 129 552 129 552 179 552 c 0,16,17
 212 552 212 552 259 524.5 c 128,-1,18
 306 497 306 497 339 497 c 0,19,20
 384 497 384 497 428 497 c 0,21,22
 459 497 459 497 493 517 c 128,-1,23
 527 537 527 537 545 557 c 2,24,-1
 564 577 l 257,0,-1
EndSplineSet
EndChar

StartChar: .notdef
Encoding: 0 0 95
Width: 512
VWidth: 1000
Flags: W
LayerCount: 2
Fore
SplineSet
512 800 m 2,0,1
 512 809 512 809 505.5 815.5 c 128,-1,2
 499 822 499 822 490 822 c 2,3,-1
 22 822 l 2,4,5
 13 822 13 822 6.5 815.5 c 128,-1,6
 0 809 0 809 0 800 c 2,7,-1
 -0 0 l 2,8,9
 0 -9 0 -9 6.5 -15.5 c 128,-1,10
 13 -22 13 -22 22 -22 c 2,11,-1
 490 -22 l 2,12,13
 499 -22 499 -22 505.5 -15.5 c 128,-1,14
 512 -9 512 -9 512 0 c 2,15,-1
 512 800 l 2,0,1
-5 800 m 2,16,17
 -5 811 -5 811 3 819 c 128,-1,18
 11 827 11 827 22 827 c 2,19,-1
 490 827 l 2,20,21
 501 827 501 827 509 819 c 128,-1,22
 517 811 517 811 517 800 c 2,23,-1
 517 -0 l 2,24,25
 517 -11 517 -11 509 -19 c 128,-1,26
 501 -27 501 -27 490 -27 c 2,27,-1
 22 -27 l 2,28,29
 11 -27 11 -27 3 -19 c 128,-1,30
 -5 -11 -5 -11 -5 0 c 2,31,-1
 -5 800 l 2,16,17
463 773 m 1,32,-1
 49 773 l 1,33,-1
 49 27 l 1,34,-1
 463 27 l 1,35,-1
 463 773 l 1,32,-1
468 775 m 2,36,-1
 468 25 l 2,37,38
 468 22 468 22 465 22 c 2,39,-1
 47 22 l 2,40,41
 44 22 44 22 44 25 c 2,42,-1
 44 775 l 2,43,44
 44 778 44 778 47 778 c 2,45,-1
 465 778 l 2,46,47
 468 778 468 778 468 775 c 2,36,-1
356 508 m 0,48,49
 356 504 356 504 353.5 485.5 c 128,-1,50
 351 467 351 467 343.5 444.5 c 128,-1,51
 336 422 336 422 326 422 c 2,52,-1
 246 422 l 2,53,54
 237 422 237 422 230.5 415.5 c 128,-1,55
 224 409 224 409 224 400 c 2,56,-1
 224 212 l 2,57,58
 224 203 224 203 230.5 196.5 c 128,-1,59
 237 190 237 190 246 190 c 128,-1,60
 255 190 255 190 261.5 196.5 c 128,-1,61
 268 203 268 203 268 212 c 2,62,-1
 268 375 l 2,63,64
 268 378 268 378 271 378 c 2,65,-1
 340 378 l 2,66,67
 368 378 368 378 384.5 428.5 c 128,-1,68
 401 479 401 479 401 508 c 0,69,70
 401 570 401 570 359 615 c 128,-1,71
 317 660 317 660 258 660 c 0,72,73
 229 660 229 660 189.5 644.5 c 128,-1,74
 150 629 150 629 150 604 c 2,75,-1
 150 570 l 2,76,77
 150 561 150 561 156.5 554.5 c 128,-1,78
 163 548 163 548 172 548 c 128,-1,79
 181 548 181 548 187.5 554.5 c 128,-1,80
 194 561 194 561 194 570 c 2,81,-1
 194 591 l 2,82,83
 194 601 194 601 220 608.5 c 128,-1,84
 246 616 246 616 258 616 c 0,85,86
 297 616 297 616 326.5 583 c 128,-1,87
 356 550 356 550 356 508 c 0,48,49
250 174 m 128,-1,89
 241 174 241 174 234.5 167.5 c 128,-1,90
 228 161 228 161 228 152 c 2,91,-1
 228 108 l 2,92,93
 228 99 228 99 234.5 92.5 c 128,-1,94
 241 86 241 86 250 86 c 128,-1,95
 259 86 259 86 265.5 92.5 c 128,-1,96
 272 99 272 99 272 108 c 2,97,-1
 272 152 l 2,98,99
 272 161 272 161 265.5 167.5 c 128,-1,88
 259 174 259 174 250 174 c 128,-1,89
250 81 m 128,-1,101
 239 81 239 81 231 89 c 128,-1,102
 223 97 223 97 223 108 c 2,103,-1
 223 152 l 2,104,105
 223 163 223 163 231 171 c 128,-1,106
 239 179 239 179 250 179 c 128,-1,107
 261 179 261 179 269 171 c 128,-1,108
 277 163 277 163 277 152 c 2,109,-1
 277 108 l 2,110,111
 277 97 277 97 269 89 c 128,-1,100
 261 81 261 81 250 81 c 128,-1,101
258 611 m 1,112,113
 230 611 230 611 199 590 c 1,114,-1
 199 570 l 2,115,116
 199 559 199 559 191 551 c 128,-1,117
 183 543 183 543 172 543 c 128,-1,118
 161 543 161 543 153 551 c 128,-1,119
 145 559 145 559 145 570 c 2,120,-1
 145 604 l 2,121,122
 145 631 145 631 185.5 648 c 128,-1,123
 226 665 226 665 258 665 c 0,124,125
 319 665 319 665 362.5 619 c 128,-1,126
 406 573 406 573 406 508 c 0,127,128
 406 477 406 477 388 425 c 128,-1,129
 370 373 370 373 340 373 c 2,130,-1
 273 373 l 1,131,-1
 273 212 l 2,132,133
 273 201 273 201 265 193 c 128,-1,134
 257 185 257 185 246 185 c 128,-1,135
 235 185 235 185 227 193 c 128,-1,136
 219 201 219 201 219 212 c 2,137,-1
 219 400 l 2,138,139
 219 411 219 411 227 419 c 128,-1,140
 235 427 235 427 246 427 c 2,141,-1
 325 427 l 1,142,143
 351 471 351 471 351 508 c 0,144,145
 351 531 351 531 343.5 548.5 c 128,-1,146
 336 566 336 566 319 578 c 128,-1,147
 302 590 302 590 291 596 c 128,-1,148
 280 602 280 602 258 611 c 1,112,113
EndSplineSet
EndChar

StartChar: at
Encoding: 64 64 96
Width: 864
VWidth: 0
Flags: W
LayerCount: 2
Fore
SplineSet
539 166 m 1025,0,-1
500 420 m 257,1,2
 496 421 496 421 488 421 c 0,3,4
 465 421 465 421 449.5 405.5 c 128,-1,5
 434 390 434 390 434 368 c 128,-1,6
 434 346 434 346 449.5 330 c 128,-1,7
 465 314 465 314 488 314 c 0,8,9
 492 314 492 314 500 316 c 1,10,-1
 500 420 l 257,1,2
576 236 m 1025,11,-1
502 228 m 1,12,-1
 488 239 l 1,13,14
 434 239 434 239 396 276.5 c 128,-1,15
 358 314 358 314 358 368 c 0,16,17
 358 421 358 421 396 456.5 c 128,-1,18
 434 492 434 492 488 492 c 2,19,-1
 500 492 l 1,20,-1
 576 492 l 1,21,-1
 583 318 l 2,22,23
 585 306 585 306 598.5 292 c 128,-1,24
 612 278 612 278 628.5 270.5 c 128,-1,25
 645 263 645 263 659.5 276 c 128,-1,26
 674 289 674 289 677 326 c 0,27,28
 677 327 677 327 675 334 c 128,-1,29
 673 341 673 341 673 342 c 0,30,31
 682 396 682 396 666 448.5 c 128,-1,32
 650 501 650 501 610 541 c 0,33,34
 542 608 542 608 446.5 606.5 c 128,-1,35
 351 605 351 605 283 537 c 0,36,37
 214 468 214 468 213 372.5 c 128,-1,38
 212 277 212 277 279 209 c 0,39,40
 331 157 331 157 403 146 c 128,-1,41
 475 135 475 135 539 166 c 0,42,43
 550 171 550 171 578 143 c 0,44,45
 606 114 606 114 629 84 c 2,46,-1
 652 54 l 1,47,48
 539 -22 539 -22 402 -10.5 c 128,-1,49
 265 1 265 1 168 98 c 0,50,51
 56 210 56 210 58.5 371 c 128,-1,52
 61 532 61 532 176 647 c 128,-1,53
 291 762 291 762 451.5 764.5 c 128,-1,54
 612 767 612 767 724 655 c 0,55,56
 808 571 808 571 829 448 c 128,-1,57
 850 325 850 325 802 220 c 1,58,59
 780 207 780 207 758 199 c 128,-1,60
 736 191 736 191 711.5 189.5 c 128,-1,61
 687 188 687 188 670 187.5 c 128,-1,62
 653 187 653 187 626 193.5 c 128,-1,63
 599 200 599 200 586.5 203 c 128,-1,64
 574 206 574 206 542.5 215.5 c 128,-1,65
 511 225 511 225 502 228 c 1,12,-1
EndSplineSet
EndChar

StartChar: uniE366
Encoding: 58214 58214 97
Width: 1024
Flags: W
LayerCount: 2
Fore
SplineSet
822 20 m 1025,0,-1
168 0 m 128,-1,2
 168 8 168 8 264 14 c 128,-1,3
 360 20 360 20 495 20 c 128,-1,4
 630 20 630 20 726 14 c 128,-1,5
 822 8 822 8 822 0 c 128,-1,6
 822 -8 822 -8 726 -14 c 128,-1,7
 630 -20 630 -20 495 -20 c 128,-1,8
 360 -20 360 -20 264 -14 c 128,-1,1
 168 -8 168 -8 168 0 c 128,-1,2
EndSplineSet
EndChar

StartChar: uniE367
Encoding: 58215 58215 98
Width: 1024
LayerCount: 2
Back
SplineSet
470.5 881.509765625 m 6
 470.5 883.580078125 472.180664062 885.259765625 474.25 885.259765625 c 4
 476.319335938 885.259765625 478 883.580078125 478 881.509765625 c 6
 478 270.64453125 l 5
 495.372070312 244.5859375 l 6
 495.66015625 244.155273438 495.860351562 243.661132812 495.94921875 243.129882812 c 6
 504.94921875 189.129882812 l 6
 504.982421875 188.928710938 505 188.720703125 505 188.509765625 c 4
 505 186.440429688 503.319335938 184.759765625 501.25 184.759765625 c 4
 499.391601562 184.759765625 497.846679688 186.115234375 497.55078125 187.889648438 c 6
 488.682617188 241.1015625 l 5
 471.127929688 267.43359375 l 6
 470.731445312 268.028320312 470.5 268.7421875 470.5 269.509765625 c 6
 470.5 881.509765625 l 6
37.75 176.450195312 m 1053
37.75 176.450195312 m 29
 897.25 176.450195312 l 29
 474.25 899.509765625 l 29
 37.75 176.450195312 l 29
EndSplineSet
Fore
SplineSet
472 877.5 m 128,-1,1
 474.327892199 877.5 474.327892199 877.5 474.49358119 875.180354137 c 2,2,-1
 480.496501288 791.133270904 l 1,3,-1
 486.496501288 677.133270904 l 1,4,-1
 486.496501288 569 l 2,5,6
 486.496501288 568.584648819 486.496501288 568.584648819 486.367312356 568.194878864 c 0,7,8
 470.488178876 521.549924268 470.488178876 521.549924268 468.498964285 451.927413565 c 0,9,10
 466.648148148 440.679993602 466.648148148 440.679993602 466.648148148 422.187228564 c 128,-1,11
 466.648148148 403.694463526 466.648148148 403.694463526 473.57381995 362.955217631 c 128,-1,12
 480.499491752 322.215971737 480.499491752 322.215971737 480.499491752 301.949134291 c 0,13,14
 480.465506592 300.249876297 480.465506592 300.249876297 480.465517241 298.585017836 c 0,15,16
 480.465517241 252.456010361 480.465517241 252.456010361 506.542686457 231.966805977 c 0,17,18
 507.401091978 231.292344497 507.401091978 231.292344497 507.491286559 230.21000953 c 2,19,-1
 510.491286559 194.21000953 l 2,20,21
 510.5 191.5 510.5 191.5 508 191.5 c 128,-1,22
 505.69954598 191.5 505.69954598 191.5 505.508713441 193.78999047 c 2,23,-1
 502.597865362 228.720167418 l 1,24,25
 475.465517241 250.782472003 475.465517241 250.782472003 475.465517241 298.585017836 c 0,26,27
 475.465517241 300.301856682 475.465517241 300.301856682 475.500508248 302.050865709 c 0,28,29
 475.500508248 321.784028263 475.500508248 321.784028263 468.574328198 362.52626385 c 128,-1,30
 461.648148148 403.268499437 461.648148148 403.268499437 461.648148219 422.130627355 c 128,-1,31
 461.648148289 440.992755274 461.648148289 440.992755274 463.505949391 452.243804982 c 0,32,33
 465.523048659 522.218168299 465.523048659 522.218168299 481.5 569.414257766 c 1,34,-1
 481.5 676.933204623 l 1,35,-1
 475.503498712 790.866729096 l 1,36,-1
 469.50641881 874.819645863 l 2,37,0
 469.5 877.5 469.5 877.5 472 877.5 c 128,-1,1
EndSplineSet
LCarets2: 5 0 0 0 0 0
EndChar
